M48
;DRILL file {KiCad (5.0.0-3-g5ebb6b6)} date Wednesday 15 August 2018 at 23:13:54
;FORMAT={-:-/ absolute / inch / decimal}
FMAT,2
INCH,TZ
T1C0.0157
T2C0.0300
T3C0.0315
T4C0.0354
T5C0.0394
T6C0.0866
%
G90
G05
M72
T1
X5.8071Y-2.3917
X5.8661Y-2.1555
X5.8739Y-2.0571
X6.1811Y-2.1457
X6.5401Y-2.0571
X6.7224Y-2.6378
X6.7225Y-2.8248
X6.7717Y-3.0264
T2
X6.7717Y-3.248
X6.7717Y-3.4449
X6.8504Y-3.248
X6.8504Y-3.4449
X6.9291Y-3.248
X6.9291Y-3.4449
T3
X6.6535Y-2.2638
X6.6535Y-2.3638
X6.6535Y-2.4638
X6.6535Y-2.5638
X6.9535Y-2.2638
X6.9535Y-2.3638
X6.9535Y-2.4638
X6.9535Y-2.5638
X6.7126Y-2.126
X6.9094Y-2.126
X6.6291Y-2.8839
X6.9291Y-2.8839
X6.6339Y-2.7264
X6.8307Y-2.7264
X5.7087Y-2.2638
X5.7087Y-2.3638
X5.7087Y-2.4638
X5.7087Y-2.5638
X5.7087Y-2.6638
X5.7087Y-2.7638
X5.7087Y-2.8638
X6.0087Y-2.2638
X6.0087Y-2.3638
X6.0087Y-2.4638
X6.0087Y-2.5638
X6.0087Y-2.6638
X6.0087Y-2.7638
X6.0087Y-2.8638
X6.4764Y-1.9587
X6.4764Y-2.1555
X5.2362Y-2.2638
X5.2362Y-2.3638
X5.2362Y-2.4638
X5.2362Y-2.5638
X5.2362Y-2.6638
X5.2362Y-2.7638
X5.2362Y-2.8638
X5.5362Y-2.2638
X5.5362Y-2.3638
X5.5362Y-2.4638
X5.5362Y-2.5638
X5.5362Y-2.6638
X5.5362Y-2.7638
X5.5362Y-2.8638
X6.0386Y-3.0807
X6.3386Y-3.0807
X6.4075Y-3.3563
X6.5059Y-3.3563
X6.1811Y-2.2638
X6.1811Y-2.3638
X6.1811Y-2.4638
X6.1811Y-2.5638
X6.1811Y-2.6638
X6.1811Y-2.7638
X6.1811Y-2.8638
X6.4811Y-2.2638
X6.4811Y-2.3638
X6.4811Y-2.4638
X6.4811Y-2.5638
X6.4811Y-2.6638
X6.4811Y-2.7638
X6.4811Y-2.8638
X6.0039Y-1.9488
X6.0039Y-2.1457
X5.5315Y-1.9488
X5.5315Y-2.1457
X5.5906Y-3.0807
X5.8906Y-3.0807
X6.624Y-3.0709
X6.924Y-3.0709
T4
X6.0122Y-3.3465
X6.1122Y-3.3465
X5.6283Y-3.3465
X5.7283Y-3.3465
T5
X6.0039Y-3.6614
X6.1039Y-3.6614
X6.4075Y-3.6614
X6.5075Y-3.6614
X5.6201Y-3.6614
X5.7201Y-3.6614
X5.2362Y-3.048
X5.2362Y-3.148
X5.2362Y-3.248
X5.4331Y-3.048
X5.4331Y-3.148
X5.4331Y-3.248
T6
X6.9685Y-1.9291
X6.9685Y-3.6614
X5.2362Y-3.6614
X5.2362Y-1.9291
T0
M30
