G04 #@! TF.GenerationSoftware,KiCad,Pcbnew,(5.0.0-3-g5ebb6b6)*
G04 #@! TF.CreationDate,2018-08-15T23:13:33+01:00*
G04 #@! TF.ProjectId,clock,636C6F636B2E6B696361645F70636200,0.1*
G04 #@! TF.SameCoordinates,Original*
G04 #@! TF.FileFunction,Copper,L2,Bot,Signal*
G04 #@! TF.FilePolarity,Positive*
%FSLAX46Y46*%
G04 Gerber Fmt 4.6, Leading zero omitted, Abs format (unit mm)*
G04 Created by KiCad (PCBNEW (5.0.0-3-g5ebb6b6)) date Wednesday 15 August 2018 at 23:13:33*
%MOMM*%
%LPD*%
G01*
G04 APERTURE LIST*
G04 #@! TA.AperFunction,ComponentPad*
%ADD10C,4.400000*%
G04 #@! TD*
G04 #@! TA.AperFunction,ComponentPad*
%ADD11C,1.600000*%
G04 #@! TD*
G04 #@! TA.AperFunction,ComponentPad*
%ADD12R,1.600000X1.600000*%
G04 #@! TD*
G04 #@! TA.AperFunction,ComponentPad*
%ADD13R,1.800000X1.800000*%
G04 #@! TD*
G04 #@! TA.AperFunction,ComponentPad*
%ADD14C,1.800000*%
G04 #@! TD*
G04 #@! TA.AperFunction,ComponentPad*
%ADD15O,1.700000X1.700000*%
G04 #@! TD*
G04 #@! TA.AperFunction,ComponentPad*
%ADD16R,1.700000X1.700000*%
G04 #@! TD*
G04 #@! TA.AperFunction,ComponentPad*
%ADD17O,1.600000X1.600000*%
G04 #@! TD*
G04 #@! TA.AperFunction,ComponentPad*
%ADD18C,1.524000*%
G04 #@! TD*
G04 #@! TA.AperFunction,ViaPad*
%ADD19C,0.800000*%
G04 #@! TD*
G04 #@! TA.AperFunction,Conductor*
%ADD20C,0.254000*%
G04 #@! TD*
G04 APERTURE END LIST*
D10*
G04 #@! TO.P,REF\002A\002A,1*
G04 #@! TO.N,N/C*
X177000000Y-93000000D03*
G04 #@! TD*
G04 #@! TO.P,REF\002A\002A,1*
G04 #@! TO.N,N/C*
X133000000Y-93000000D03*
G04 #@! TD*
G04 #@! TO.P,REF\002A\002A,1*
G04 #@! TO.N,N/C*
X177000000Y-49000000D03*
G04 #@! TD*
D11*
G04 #@! TO.P,C1,2*
G04 #@! TO.N,VCC*
X140500000Y-54500000D03*
G04 #@! TO.P,C1,1*
G04 #@! TO.N,GND*
X140500000Y-49500000D03*
G04 #@! TD*
G04 #@! TO.P,C2,1*
G04 #@! TO.N,GND*
X152500000Y-49500000D03*
G04 #@! TO.P,C2,2*
G04 #@! TO.N,VCC*
X152500000Y-54500000D03*
G04 #@! TD*
G04 #@! TO.P,C3,2*
G04 #@! TO.N,VCC*
X175500000Y-54000000D03*
G04 #@! TO.P,C3,1*
G04 #@! TO.N,GND*
X170500000Y-54000000D03*
G04 #@! TD*
G04 #@! TO.P,C4,2*
G04 #@! TO.N,GND*
X168500000Y-69250000D03*
G04 #@! TO.P,C4,1*
G04 #@! TO.N,Net-(C4-Pad1)*
X173500000Y-69250000D03*
G04 #@! TD*
G04 #@! TO.P,C5,2*
G04 #@! TO.N,GND*
X162750000Y-85250000D03*
D12*
G04 #@! TO.P,C5,1*
G04 #@! TO.N,VCC*
X165250000Y-85250000D03*
G04 #@! TD*
D11*
G04 #@! TO.P,C6,1*
G04 #@! TO.N,VCC*
X164500000Y-54750000D03*
G04 #@! TO.P,C6,2*
G04 #@! TO.N,GND*
X164500000Y-49750000D03*
G04 #@! TD*
D13*
G04 #@! TO.P,D1,1*
G04 #@! TO.N,Net-(D1-Pad1)*
X145500000Y-85000000D03*
D14*
G04 #@! TO.P,D1,2*
G04 #@! TO.N,/HLT*
X142960000Y-85000000D03*
G04 #@! TD*
G04 #@! TO.P,D2,2*
G04 #@! TO.N,/OUT*
X152710000Y-85000000D03*
D13*
G04 #@! TO.P,D2,1*
G04 #@! TO.N,Net-(D2-Pad1)*
X155250000Y-85000000D03*
G04 #@! TD*
D15*
G04 #@! TO.P,J1,2*
G04 #@! TO.N,/HLT*
X145290000Y-93000000D03*
D16*
G04 #@! TO.P,J1,1*
X142750000Y-93000000D03*
G04 #@! TD*
G04 #@! TO.P,J2,1*
G04 #@! TO.N,/OUT*
X152500000Y-93000000D03*
D15*
G04 #@! TO.P,J2,2*
X155040000Y-93000000D03*
G04 #@! TD*
G04 #@! TO.P,J3,2*
G04 #@! TO.N,VCC*
X165290000Y-93000000D03*
D16*
G04 #@! TO.P,J3,1*
G04 #@! TO.N,GND*
X162750000Y-93000000D03*
G04 #@! TD*
G04 #@! TO.P,J4,1*
G04 #@! TO.N,GND*
X133000000Y-82500000D03*
D15*
G04 #@! TO.P,J4,2*
G04 #@! TO.N,/OSC_A*
X133000000Y-79960000D03*
G04 #@! TO.P,J4,3*
G04 #@! TO.N,VCC*
X133000000Y-77420000D03*
G04 #@! TD*
G04 #@! TO.P,J5,3*
G04 #@! TO.N,VCC*
X138000000Y-77420000D03*
G04 #@! TO.P,J5,2*
G04 #@! TO.N,/OSC_B*
X138000000Y-79960000D03*
D16*
G04 #@! TO.P,J5,1*
G04 #@! TO.N,GND*
X138000000Y-82500000D03*
G04 #@! TD*
D11*
G04 #@! TO.P,R1,1*
G04 #@! TO.N,GND*
X142000000Y-78250000D03*
D17*
G04 #@! TO.P,R1,2*
G04 #@! TO.N,Net-(D1-Pad1)*
X149620000Y-78250000D03*
G04 #@! TD*
G04 #@! TO.P,R2,2*
G04 #@! TO.N,GND*
X153380000Y-78250000D03*
D11*
G04 #@! TO.P,R2,1*
G04 #@! TO.N,Net-(D2-Pad1)*
X161000000Y-78250000D03*
G04 #@! TD*
D17*
G04 #@! TO.P,R3,2*
G04 #@! TO.N,Net-(R3-Pad2)*
X168380000Y-73250000D03*
D11*
G04 #@! TO.P,R3,1*
G04 #@! TO.N,VCC*
X176000000Y-73250000D03*
G04 #@! TD*
G04 #@! TO.P,R4,1*
G04 #@! TO.N,VCC*
X168250000Y-78000000D03*
D17*
G04 #@! TO.P,R4,2*
G04 #@! TO.N,Net-(R4-Pad2)*
X175870000Y-78000000D03*
G04 #@! TD*
D18*
G04 #@! TO.P,SW1,1*
G04 #@! TO.N,Net-(R4-Pad2)*
X176000000Y-82500000D03*
G04 #@! TO.P,SW1,2*
G04 #@! TO.N,GND*
X174000000Y-82500000D03*
G04 #@! TO.P,SW1,3*
G04 #@! TO.N,Net-(R3-Pad2)*
X172000000Y-82500000D03*
G04 #@! TO.P,SW1,4*
G04 #@! TO.N,N/C*
X176000000Y-87500000D03*
G04 #@! TO.P,SW1,5*
X174000000Y-87500000D03*
G04 #@! TO.P,SW1,6*
X172000000Y-87500000D03*
G04 #@! TD*
D12*
G04 #@! TO.P,U1,1*
G04 #@! TO.N,N/C*
X133000000Y-57500000D03*
D17*
G04 #@! TO.P,U1,8*
G04 #@! TO.N,Net-(U1-Pad8)*
X140620000Y-72740000D03*
G04 #@! TO.P,U1,2*
G04 #@! TO.N,N/C*
X133000000Y-60040000D03*
G04 #@! TO.P,U1,9*
G04 #@! TO.N,/HLT*
X140620000Y-70200000D03*
G04 #@! TO.P,U1,3*
G04 #@! TO.N,N/C*
X133000000Y-62580000D03*
G04 #@! TO.P,U1,10*
X140620000Y-67660000D03*
G04 #@! TO.P,U1,4*
X133000000Y-65120000D03*
G04 #@! TO.P,U1,11*
X140620000Y-65120000D03*
G04 #@! TO.P,U1,5*
X133000000Y-67660000D03*
G04 #@! TO.P,U1,12*
G04 #@! TO.N,Net-(U1-Pad12)*
X140620000Y-62580000D03*
G04 #@! TO.P,U1,6*
G04 #@! TO.N,N/C*
X133000000Y-70200000D03*
G04 #@! TO.P,U1,13*
G04 #@! TO.N,/SEL*
X140620000Y-60040000D03*
G04 #@! TO.P,U1,7*
G04 #@! TO.N,GND*
X133000000Y-72740000D03*
G04 #@! TO.P,U1,14*
G04 #@! TO.N,VCC*
X140620000Y-57500000D03*
G04 #@! TD*
G04 #@! TO.P,U2,14*
G04 #@! TO.N,VCC*
X152620000Y-57500000D03*
G04 #@! TO.P,U2,7*
G04 #@! TO.N,GND*
X145000000Y-72740000D03*
G04 #@! TO.P,U2,13*
G04 #@! TO.N,N/C*
X152620000Y-60040000D03*
G04 #@! TO.P,U2,6*
G04 #@! TO.N,Net-(U2-Pad6)*
X145000000Y-70200000D03*
G04 #@! TO.P,U2,12*
G04 #@! TO.N,N/C*
X152620000Y-62580000D03*
G04 #@! TO.P,U2,5*
G04 #@! TO.N,/OSC_B*
X145000000Y-67660000D03*
G04 #@! TO.P,U2,11*
G04 #@! TO.N,N/C*
X152620000Y-65120000D03*
G04 #@! TO.P,U2,4*
G04 #@! TO.N,Net-(U1-Pad12)*
X145000000Y-65120000D03*
G04 #@! TO.P,U2,10*
G04 #@! TO.N,Net-(U2-Pad10)*
X152620000Y-67660000D03*
G04 #@! TO.P,U2,3*
G04 #@! TO.N,Net-(U2-Pad3)*
X145000000Y-62580000D03*
G04 #@! TO.P,U2,9*
G04 #@! TO.N,Net-(U1-Pad8)*
X152620000Y-70200000D03*
G04 #@! TO.P,U2,2*
G04 #@! TO.N,/OSC_A*
X145000000Y-60040000D03*
G04 #@! TO.P,U2,8*
G04 #@! TO.N,/OUT*
X152620000Y-72740000D03*
D12*
G04 #@! TO.P,U2,1*
G04 #@! TO.N,/SEL*
X145000000Y-57500000D03*
G04 #@! TD*
D17*
G04 #@! TO.P,U3,14*
G04 #@! TO.N,VCC*
X164620000Y-57500000D03*
G04 #@! TO.P,U3,7*
G04 #@! TO.N,GND*
X157000000Y-72740000D03*
G04 #@! TO.P,U3,13*
G04 #@! TO.N,N/C*
X164620000Y-60040000D03*
G04 #@! TO.P,U3,6*
X157000000Y-70200000D03*
G04 #@! TO.P,U3,12*
X164620000Y-62580000D03*
G04 #@! TO.P,U3,5*
X157000000Y-67660000D03*
G04 #@! TO.P,U3,11*
X164620000Y-65120000D03*
G04 #@! TO.P,U3,4*
X157000000Y-65120000D03*
G04 #@! TO.P,U3,10*
X164620000Y-67660000D03*
G04 #@! TO.P,U3,3*
G04 #@! TO.N,Net-(U2-Pad10)*
X157000000Y-62580000D03*
G04 #@! TO.P,U3,9*
G04 #@! TO.N,N/C*
X164620000Y-70200000D03*
G04 #@! TO.P,U3,2*
G04 #@! TO.N,Net-(U2-Pad6)*
X157000000Y-60040000D03*
G04 #@! TO.P,U3,8*
G04 #@! TO.N,N/C*
X164620000Y-72740000D03*
D12*
G04 #@! TO.P,U3,1*
G04 #@! TO.N,Net-(U2-Pad3)*
X157000000Y-57500000D03*
G04 #@! TD*
D17*
G04 #@! TO.P,U4,8*
G04 #@! TO.N,VCC*
X176620000Y-57500000D03*
G04 #@! TO.P,U4,4*
G04 #@! TO.N,Net-(R4-Pad2)*
X169000000Y-65120000D03*
G04 #@! TO.P,U4,7*
G04 #@! TO.N,N/C*
X176620000Y-60040000D03*
G04 #@! TO.P,U4,3*
G04 #@! TO.N,/SEL*
X169000000Y-62580000D03*
G04 #@! TO.P,U4,6*
G04 #@! TO.N,GND*
X176620000Y-62580000D03*
G04 #@! TO.P,U4,2*
G04 #@! TO.N,Net-(R3-Pad2)*
X169000000Y-60040000D03*
G04 #@! TO.P,U4,5*
G04 #@! TO.N,Net-(C4-Pad1)*
X176620000Y-65120000D03*
D12*
G04 #@! TO.P,U4,1*
G04 #@! TO.N,GND*
X169000000Y-57500000D03*
G04 #@! TD*
D10*
G04 #@! TO.P,REF\002A\002A,1*
G04 #@! TO.N,N/C*
X133000000Y-49000000D03*
G04 #@! TD*
D19*
G04 #@! TO.N,Net-(R3-Pad2)*
X172000000Y-76870000D03*
G04 #@! TO.N,Net-(R4-Pad2)*
X170751370Y-71750000D03*
X170750000Y-67000000D03*
G04 #@! TO.N,/SEL*
X149196000Y-52250000D03*
X166118602Y-52250000D03*
G04 #@! TO.N,Net-(U2-Pad3)*
X157000000Y-54500000D03*
X149000000Y-54750000D03*
X147500000Y-60750000D03*
G04 #@! TD*
D20*
G04 #@! TO.N,/OSC_A*
X134500000Y-80000000D02*
X134460000Y-79960000D01*
X139357001Y-63892999D02*
X135500000Y-67750000D01*
X145000000Y-60040000D02*
X141147001Y-63892999D01*
X141147001Y-63892999D02*
X139357001Y-63892999D01*
X134460000Y-79960000D02*
X133000000Y-79960000D01*
X135500000Y-79000000D02*
X134500000Y-80000000D01*
X135500000Y-67750000D02*
X135500000Y-79000000D01*
G04 #@! TO.N,/OSC_B*
X138000000Y-79960000D02*
X143000000Y-74960000D01*
X143000000Y-69660000D02*
X145000000Y-67660000D01*
X143000000Y-74960000D02*
X143000000Y-69660000D01*
G04 #@! TO.N,Net-(R3-Pad2)*
X172000000Y-76870000D02*
X168380000Y-73250000D01*
G04 #@! TO.N,Net-(R4-Pad2)*
X170751370Y-67001370D02*
X170750000Y-67000000D01*
X170751370Y-71750000D02*
X170751370Y-67001370D01*
G04 #@! TO.N,/SEL*
X166118602Y-52250000D02*
X149196000Y-52250000D01*
G04 #@! TO.N,Net-(U2-Pad6)*
X156200001Y-60839999D02*
X157000000Y-60040000D01*
X155772999Y-61267001D02*
X156200001Y-60839999D01*
X151392999Y-61991039D02*
X152117037Y-61267001D01*
X151392999Y-63807001D02*
X151392999Y-61991039D01*
X152117037Y-61267001D02*
X155772999Y-61267001D01*
X145000000Y-70200000D02*
X151392999Y-63807001D01*
G04 #@! TO.N,Net-(U2-Pad3)*
X150750000Y-53000000D02*
X149000000Y-54750000D01*
X155500000Y-53000000D02*
X150750000Y-53000000D01*
X157000000Y-54500000D02*
X155500000Y-53000000D01*
X145799999Y-61780001D02*
X146469999Y-61780001D01*
X145000000Y-62580000D02*
X145799999Y-61780001D01*
X146469999Y-61780001D02*
X147500000Y-60750000D01*
G04 #@! TD*
G04 #@! TO.N,GND*
G36*
X174596603Y-47394101D02*
X174165000Y-48436083D01*
X174165000Y-49563917D01*
X174596603Y-50605899D01*
X175394101Y-51403397D01*
X176436083Y-51835000D01*
X177563917Y-51835000D01*
X178605899Y-51403397D01*
X178873000Y-51136296D01*
X178873000Y-90863704D01*
X178605899Y-90596603D01*
X177563917Y-90165000D01*
X176436083Y-90165000D01*
X175394101Y-90596603D01*
X174596603Y-91394101D01*
X174165000Y-92436083D01*
X174165000Y-93563917D01*
X174596603Y-94605899D01*
X174863704Y-94873000D01*
X135136296Y-94873000D01*
X135403397Y-94605899D01*
X135835000Y-93563917D01*
X135835000Y-92436083D01*
X135716501Y-92150000D01*
X141252560Y-92150000D01*
X141252560Y-93850000D01*
X141301843Y-94097765D01*
X141442191Y-94307809D01*
X141652235Y-94448157D01*
X141900000Y-94497440D01*
X143600000Y-94497440D01*
X143847765Y-94448157D01*
X144057809Y-94307809D01*
X144198157Y-94097765D01*
X144207184Y-94052381D01*
X144219375Y-94070625D01*
X144710582Y-94398839D01*
X145143744Y-94485000D01*
X145436256Y-94485000D01*
X145869418Y-94398839D01*
X146360625Y-94070625D01*
X146688839Y-93579418D01*
X146804092Y-93000000D01*
X146688839Y-92420582D01*
X146508042Y-92150000D01*
X151002560Y-92150000D01*
X151002560Y-93850000D01*
X151051843Y-94097765D01*
X151192191Y-94307809D01*
X151402235Y-94448157D01*
X151650000Y-94497440D01*
X153350000Y-94497440D01*
X153597765Y-94448157D01*
X153807809Y-94307809D01*
X153948157Y-94097765D01*
X153957184Y-94052381D01*
X153969375Y-94070625D01*
X154460582Y-94398839D01*
X154893744Y-94485000D01*
X155186256Y-94485000D01*
X155619418Y-94398839D01*
X156110625Y-94070625D01*
X156438839Y-93579418D01*
X156497252Y-93285750D01*
X161265000Y-93285750D01*
X161265000Y-93976309D01*
X161361673Y-94209698D01*
X161540301Y-94388327D01*
X161773690Y-94485000D01*
X162464250Y-94485000D01*
X162623000Y-94326250D01*
X162623000Y-93127000D01*
X161423750Y-93127000D01*
X161265000Y-93285750D01*
X156497252Y-93285750D01*
X156554092Y-93000000D01*
X156438839Y-92420582D01*
X156173645Y-92023691D01*
X161265000Y-92023691D01*
X161265000Y-92714250D01*
X161423750Y-92873000D01*
X162623000Y-92873000D01*
X162623000Y-91673750D01*
X162877000Y-91673750D01*
X162877000Y-92873000D01*
X162897000Y-92873000D01*
X162897000Y-93127000D01*
X162877000Y-93127000D01*
X162877000Y-94326250D01*
X163035750Y-94485000D01*
X163726310Y-94485000D01*
X163959699Y-94388327D01*
X164138327Y-94209698D01*
X164204904Y-94048967D01*
X164219375Y-94070625D01*
X164710582Y-94398839D01*
X165143744Y-94485000D01*
X165436256Y-94485000D01*
X165869418Y-94398839D01*
X166360625Y-94070625D01*
X166688839Y-93579418D01*
X166804092Y-93000000D01*
X166688839Y-92420582D01*
X166360625Y-91929375D01*
X165869418Y-91601161D01*
X165436256Y-91515000D01*
X165143744Y-91515000D01*
X164710582Y-91601161D01*
X164219375Y-91929375D01*
X164204904Y-91951033D01*
X164138327Y-91790302D01*
X163959699Y-91611673D01*
X163726310Y-91515000D01*
X163035750Y-91515000D01*
X162877000Y-91673750D01*
X162623000Y-91673750D01*
X162464250Y-91515000D01*
X161773690Y-91515000D01*
X161540301Y-91611673D01*
X161361673Y-91790302D01*
X161265000Y-92023691D01*
X156173645Y-92023691D01*
X156110625Y-91929375D01*
X155619418Y-91601161D01*
X155186256Y-91515000D01*
X154893744Y-91515000D01*
X154460582Y-91601161D01*
X153969375Y-91929375D01*
X153957184Y-91947619D01*
X153948157Y-91902235D01*
X153807809Y-91692191D01*
X153597765Y-91551843D01*
X153350000Y-91502560D01*
X151650000Y-91502560D01*
X151402235Y-91551843D01*
X151192191Y-91692191D01*
X151051843Y-91902235D01*
X151002560Y-92150000D01*
X146508042Y-92150000D01*
X146360625Y-91929375D01*
X145869418Y-91601161D01*
X145436256Y-91515000D01*
X145143744Y-91515000D01*
X144710582Y-91601161D01*
X144219375Y-91929375D01*
X144207184Y-91947619D01*
X144198157Y-91902235D01*
X144057809Y-91692191D01*
X143847765Y-91551843D01*
X143600000Y-91502560D01*
X141900000Y-91502560D01*
X141652235Y-91551843D01*
X141442191Y-91692191D01*
X141301843Y-91902235D01*
X141252560Y-92150000D01*
X135716501Y-92150000D01*
X135403397Y-91394101D01*
X134605899Y-90596603D01*
X133563917Y-90165000D01*
X132436083Y-90165000D01*
X131394101Y-90596603D01*
X131127000Y-90863704D01*
X131127000Y-87222119D01*
X170603000Y-87222119D01*
X170603000Y-87777881D01*
X170815680Y-88291337D01*
X171208663Y-88684320D01*
X171722119Y-88897000D01*
X172277881Y-88897000D01*
X172791337Y-88684320D01*
X173000000Y-88475657D01*
X173208663Y-88684320D01*
X173722119Y-88897000D01*
X174277881Y-88897000D01*
X174791337Y-88684320D01*
X175000000Y-88475657D01*
X175208663Y-88684320D01*
X175722119Y-88897000D01*
X176277881Y-88897000D01*
X176791337Y-88684320D01*
X177184320Y-88291337D01*
X177397000Y-87777881D01*
X177397000Y-87222119D01*
X177184320Y-86708663D01*
X176791337Y-86315680D01*
X176277881Y-86103000D01*
X175722119Y-86103000D01*
X175208663Y-86315680D01*
X175000000Y-86524343D01*
X174791337Y-86315680D01*
X174277881Y-86103000D01*
X173722119Y-86103000D01*
X173208663Y-86315680D01*
X173000000Y-86524343D01*
X172791337Y-86315680D01*
X172277881Y-86103000D01*
X171722119Y-86103000D01*
X171208663Y-86315680D01*
X170815680Y-86708663D01*
X170603000Y-87222119D01*
X131127000Y-87222119D01*
X131127000Y-84694670D01*
X141425000Y-84694670D01*
X141425000Y-85305330D01*
X141658690Y-85869507D01*
X142090493Y-86301310D01*
X142654670Y-86535000D01*
X143265330Y-86535000D01*
X143829507Y-86301310D01*
X143998725Y-86132092D01*
X144001843Y-86147765D01*
X144142191Y-86357809D01*
X144352235Y-86498157D01*
X144600000Y-86547440D01*
X146400000Y-86547440D01*
X146647765Y-86498157D01*
X146857809Y-86357809D01*
X146998157Y-86147765D01*
X147047440Y-85900000D01*
X147047440Y-84694670D01*
X151175000Y-84694670D01*
X151175000Y-85305330D01*
X151408690Y-85869507D01*
X151840493Y-86301310D01*
X152404670Y-86535000D01*
X153015330Y-86535000D01*
X153579507Y-86301310D01*
X153748725Y-86132092D01*
X153751843Y-86147765D01*
X153892191Y-86357809D01*
X154102235Y-86498157D01*
X154350000Y-86547440D01*
X156150000Y-86547440D01*
X156397765Y-86498157D01*
X156607809Y-86357809D01*
X156674670Y-86257745D01*
X161921861Y-86257745D01*
X161995995Y-86503864D01*
X162533223Y-86696965D01*
X163103454Y-86669778D01*
X163504005Y-86503864D01*
X163578139Y-86257745D01*
X162750000Y-85429605D01*
X161921861Y-86257745D01*
X156674670Y-86257745D01*
X156748157Y-86147765D01*
X156797440Y-85900000D01*
X156797440Y-85033223D01*
X161303035Y-85033223D01*
X161330222Y-85603454D01*
X161496136Y-86004005D01*
X161742255Y-86078139D01*
X162570395Y-85250000D01*
X162929605Y-85250000D01*
X163757745Y-86078139D01*
X163805307Y-86063813D01*
X163851843Y-86297765D01*
X163992191Y-86507809D01*
X164202235Y-86648157D01*
X164450000Y-86697440D01*
X166050000Y-86697440D01*
X166297765Y-86648157D01*
X166507809Y-86507809D01*
X166648157Y-86297765D01*
X166697440Y-86050000D01*
X166697440Y-84450000D01*
X166648157Y-84202235D01*
X166507809Y-83992191D01*
X166297765Y-83851843D01*
X166050000Y-83802560D01*
X164450000Y-83802560D01*
X164202235Y-83851843D01*
X163992191Y-83992191D01*
X163851843Y-84202235D01*
X163805307Y-84436187D01*
X163757745Y-84421861D01*
X162929605Y-85250000D01*
X162570395Y-85250000D01*
X161742255Y-84421861D01*
X161496136Y-84495995D01*
X161303035Y-85033223D01*
X156797440Y-85033223D01*
X156797440Y-84242255D01*
X161921861Y-84242255D01*
X162750000Y-85070395D01*
X163578139Y-84242255D01*
X163504005Y-83996136D01*
X162966777Y-83803035D01*
X162396546Y-83830222D01*
X161995995Y-83996136D01*
X161921861Y-84242255D01*
X156797440Y-84242255D01*
X156797440Y-84100000D01*
X156748157Y-83852235D01*
X156607809Y-83642191D01*
X156397765Y-83501843D01*
X156150000Y-83452560D01*
X154350000Y-83452560D01*
X154102235Y-83501843D01*
X153892191Y-83642191D01*
X153751843Y-83852235D01*
X153748725Y-83867908D01*
X153579507Y-83698690D01*
X153015330Y-83465000D01*
X152404670Y-83465000D01*
X151840493Y-83698690D01*
X151408690Y-84130493D01*
X151175000Y-84694670D01*
X147047440Y-84694670D01*
X147047440Y-84100000D01*
X146998157Y-83852235D01*
X146857809Y-83642191D01*
X146647765Y-83501843D01*
X146400000Y-83452560D01*
X144600000Y-83452560D01*
X144352235Y-83501843D01*
X144142191Y-83642191D01*
X144001843Y-83852235D01*
X143998725Y-83867908D01*
X143829507Y-83698690D01*
X143265330Y-83465000D01*
X142654670Y-83465000D01*
X142090493Y-83698690D01*
X141658690Y-84130493D01*
X141425000Y-84694670D01*
X131127000Y-84694670D01*
X131127000Y-82785750D01*
X131515000Y-82785750D01*
X131515000Y-83476310D01*
X131611673Y-83709699D01*
X131790302Y-83888327D01*
X132023691Y-83985000D01*
X132714250Y-83985000D01*
X132873000Y-83826250D01*
X132873000Y-82627000D01*
X133127000Y-82627000D01*
X133127000Y-83826250D01*
X133285750Y-83985000D01*
X133976309Y-83985000D01*
X134209698Y-83888327D01*
X134388327Y-83709699D01*
X134485000Y-83476310D01*
X134485000Y-82785750D01*
X136515000Y-82785750D01*
X136515000Y-83476310D01*
X136611673Y-83709699D01*
X136790302Y-83888327D01*
X137023691Y-83985000D01*
X137714250Y-83985000D01*
X137873000Y-83826250D01*
X137873000Y-82627000D01*
X138127000Y-82627000D01*
X138127000Y-83826250D01*
X138285750Y-83985000D01*
X138976309Y-83985000D01*
X139209698Y-83888327D01*
X139388327Y-83709699D01*
X139485000Y-83476310D01*
X139485000Y-82785750D01*
X139326250Y-82627000D01*
X138127000Y-82627000D01*
X137873000Y-82627000D01*
X136673750Y-82627000D01*
X136515000Y-82785750D01*
X134485000Y-82785750D01*
X134326250Y-82627000D01*
X133127000Y-82627000D01*
X132873000Y-82627000D01*
X131673750Y-82627000D01*
X131515000Y-82785750D01*
X131127000Y-82785750D01*
X131127000Y-77420000D01*
X131485908Y-77420000D01*
X131601161Y-77999418D01*
X131929375Y-78490625D01*
X132227761Y-78690000D01*
X131929375Y-78889375D01*
X131601161Y-79380582D01*
X131485908Y-79960000D01*
X131601161Y-80539418D01*
X131929375Y-81030625D01*
X131951033Y-81045096D01*
X131790302Y-81111673D01*
X131611673Y-81290301D01*
X131515000Y-81523690D01*
X131515000Y-82214250D01*
X131673750Y-82373000D01*
X132873000Y-82373000D01*
X132873000Y-82353000D01*
X133127000Y-82353000D01*
X133127000Y-82373000D01*
X134326250Y-82373000D01*
X134485000Y-82214250D01*
X134485000Y-81523690D01*
X134388327Y-81290301D01*
X134209698Y-81111673D01*
X134048967Y-81045096D01*
X134070625Y-81030625D01*
X134270626Y-80731302D01*
X134500000Y-80776928D01*
X134797318Y-80717787D01*
X135049371Y-80549371D01*
X135091883Y-80485747D01*
X135985749Y-79591882D01*
X136049371Y-79549371D01*
X136217788Y-79297317D01*
X136262000Y-79075048D01*
X136262000Y-79075047D01*
X136276928Y-79000000D01*
X136262000Y-78924953D01*
X136262000Y-68065630D01*
X139165306Y-65162325D01*
X139268260Y-65679909D01*
X139585423Y-66154577D01*
X139937758Y-66390000D01*
X139585423Y-66625423D01*
X139268260Y-67100091D01*
X139156887Y-67660000D01*
X139268260Y-68219909D01*
X139585423Y-68694577D01*
X139937758Y-68930000D01*
X139585423Y-69165423D01*
X139268260Y-69640091D01*
X139156887Y-70200000D01*
X139268260Y-70759909D01*
X139585423Y-71234577D01*
X139937758Y-71470000D01*
X139585423Y-71705423D01*
X139268260Y-72180091D01*
X139156887Y-72740000D01*
X139268260Y-73299909D01*
X139585423Y-73774577D01*
X140060091Y-74091740D01*
X140478667Y-74175000D01*
X140761333Y-74175000D01*
X141179909Y-74091740D01*
X141654577Y-73774577D01*
X141971740Y-73299909D01*
X142083113Y-72740000D01*
X141971740Y-72180091D01*
X141654577Y-71705423D01*
X141302242Y-71470000D01*
X141654577Y-71234577D01*
X141971740Y-70759909D01*
X142083113Y-70200000D01*
X141971740Y-69640091D01*
X141654577Y-69165423D01*
X141302242Y-68930000D01*
X141654577Y-68694577D01*
X141971740Y-68219909D01*
X142083113Y-67660000D01*
X141971740Y-67100091D01*
X141654577Y-66625423D01*
X141302242Y-66390000D01*
X141654577Y-66154577D01*
X141971740Y-65679909D01*
X142083113Y-65120000D01*
X141971740Y-64560091D01*
X141805834Y-64311796D01*
X143537010Y-62580620D01*
X143648260Y-63139909D01*
X143965423Y-63614577D01*
X144317758Y-63850000D01*
X143965423Y-64085423D01*
X143648260Y-64560091D01*
X143536887Y-65120000D01*
X143648260Y-65679909D01*
X143965423Y-66154577D01*
X144317758Y-66390000D01*
X143965423Y-66625423D01*
X143648260Y-67100091D01*
X143536887Y-67660000D01*
X143600843Y-67981527D01*
X142514251Y-69068119D01*
X142450630Y-69110629D01*
X142408119Y-69174251D01*
X142408118Y-69174252D01*
X142282213Y-69362683D01*
X142223073Y-69660000D01*
X142238001Y-69735048D01*
X142238000Y-74644369D01*
X139505511Y-77376859D01*
X139398839Y-76840582D01*
X139070625Y-76349375D01*
X138579418Y-76021161D01*
X138146256Y-75935000D01*
X137853744Y-75935000D01*
X137420582Y-76021161D01*
X136929375Y-76349375D01*
X136601161Y-76840582D01*
X136485908Y-77420000D01*
X136601161Y-77999418D01*
X136929375Y-78490625D01*
X137227761Y-78690000D01*
X136929375Y-78889375D01*
X136601161Y-79380582D01*
X136485908Y-79960000D01*
X136601161Y-80539418D01*
X136929375Y-81030625D01*
X136951033Y-81045096D01*
X136790302Y-81111673D01*
X136611673Y-81290301D01*
X136515000Y-81523690D01*
X136515000Y-82214250D01*
X136673750Y-82373000D01*
X137873000Y-82373000D01*
X137873000Y-82353000D01*
X138127000Y-82353000D01*
X138127000Y-82373000D01*
X139326250Y-82373000D01*
X139477131Y-82222119D01*
X170603000Y-82222119D01*
X170603000Y-82777881D01*
X170815680Y-83291337D01*
X171208663Y-83684320D01*
X171722119Y-83897000D01*
X172277881Y-83897000D01*
X172791337Y-83684320D01*
X172995444Y-83480213D01*
X173199392Y-83480213D01*
X173268857Y-83722397D01*
X173792302Y-83909144D01*
X174347368Y-83881362D01*
X174731143Y-83722397D01*
X174800608Y-83480213D01*
X174000000Y-82679605D01*
X173199392Y-83480213D01*
X172995444Y-83480213D01*
X173184320Y-83291337D01*
X173294106Y-83026289D01*
X173820395Y-82500000D01*
X174179605Y-82500000D01*
X174705894Y-83026289D01*
X174815680Y-83291337D01*
X175208663Y-83684320D01*
X175722119Y-83897000D01*
X176277881Y-83897000D01*
X176791337Y-83684320D01*
X177184320Y-83291337D01*
X177397000Y-82777881D01*
X177397000Y-82222119D01*
X177184320Y-81708663D01*
X176791337Y-81315680D01*
X176277881Y-81103000D01*
X175722119Y-81103000D01*
X175208663Y-81315680D01*
X174815680Y-81708663D01*
X174705894Y-81973711D01*
X174179605Y-82500000D01*
X173820395Y-82500000D01*
X173294106Y-81973711D01*
X173184320Y-81708663D01*
X172995444Y-81519787D01*
X173199392Y-81519787D01*
X174000000Y-82320395D01*
X174800608Y-81519787D01*
X174731143Y-81277603D01*
X174207698Y-81090856D01*
X173652632Y-81118638D01*
X173268857Y-81277603D01*
X173199392Y-81519787D01*
X172995444Y-81519787D01*
X172791337Y-81315680D01*
X172277881Y-81103000D01*
X171722119Y-81103000D01*
X171208663Y-81315680D01*
X170815680Y-81708663D01*
X170603000Y-82222119D01*
X139477131Y-82222119D01*
X139485000Y-82214250D01*
X139485000Y-81523690D01*
X139388327Y-81290301D01*
X139209698Y-81111673D01*
X139048967Y-81045096D01*
X139070625Y-81030625D01*
X139398839Y-80539418D01*
X139514092Y-79960000D01*
X139441679Y-79595952D01*
X139779886Y-79257745D01*
X141171861Y-79257745D01*
X141245995Y-79503864D01*
X141783223Y-79696965D01*
X142353454Y-79669778D01*
X142754005Y-79503864D01*
X142828139Y-79257745D01*
X142000000Y-78429605D01*
X141171861Y-79257745D01*
X139779886Y-79257745D01*
X140573576Y-78464055D01*
X140580222Y-78603454D01*
X140746136Y-79004005D01*
X140992255Y-79078139D01*
X141820395Y-78250000D01*
X142179605Y-78250000D01*
X143007745Y-79078139D01*
X143253864Y-79004005D01*
X143446965Y-78466777D01*
X143436630Y-78250000D01*
X148156887Y-78250000D01*
X148268260Y-78809909D01*
X148585423Y-79284577D01*
X149060091Y-79601740D01*
X149478667Y-79685000D01*
X149761333Y-79685000D01*
X150179909Y-79601740D01*
X150654577Y-79284577D01*
X150971740Y-78809909D01*
X151013684Y-78599039D01*
X151988096Y-78599039D01*
X152148959Y-78987423D01*
X152524866Y-79402389D01*
X153030959Y-79641914D01*
X153253000Y-79520629D01*
X153253000Y-78377000D01*
X153507000Y-78377000D01*
X153507000Y-79520629D01*
X153729041Y-79641914D01*
X154235134Y-79402389D01*
X154611041Y-78987423D01*
X154771904Y-78599039D01*
X154649915Y-78377000D01*
X153507000Y-78377000D01*
X153253000Y-78377000D01*
X152110085Y-78377000D01*
X151988096Y-78599039D01*
X151013684Y-78599039D01*
X151083113Y-78250000D01*
X151013685Y-77900961D01*
X151988096Y-77900961D01*
X152110085Y-78123000D01*
X153253000Y-78123000D01*
X153253000Y-76979371D01*
X153507000Y-76979371D01*
X153507000Y-78123000D01*
X154649915Y-78123000D01*
X154736961Y-77964561D01*
X159565000Y-77964561D01*
X159565000Y-78535439D01*
X159783466Y-79062862D01*
X160187138Y-79466534D01*
X160714561Y-79685000D01*
X161285439Y-79685000D01*
X161812862Y-79466534D01*
X162216534Y-79062862D01*
X162435000Y-78535439D01*
X162435000Y-77964561D01*
X162331447Y-77714561D01*
X166815000Y-77714561D01*
X166815000Y-78285439D01*
X167033466Y-78812862D01*
X167437138Y-79216534D01*
X167964561Y-79435000D01*
X168535439Y-79435000D01*
X169062862Y-79216534D01*
X169466534Y-78812862D01*
X169685000Y-78285439D01*
X169685000Y-78000000D01*
X174406887Y-78000000D01*
X174518260Y-78559909D01*
X174835423Y-79034577D01*
X175310091Y-79351740D01*
X175728667Y-79435000D01*
X176011333Y-79435000D01*
X176429909Y-79351740D01*
X176904577Y-79034577D01*
X177221740Y-78559909D01*
X177333113Y-78000000D01*
X177221740Y-77440091D01*
X176904577Y-76965423D01*
X176429909Y-76648260D01*
X176011333Y-76565000D01*
X175728667Y-76565000D01*
X175310091Y-76648260D01*
X174835423Y-76965423D01*
X174518260Y-77440091D01*
X174406887Y-78000000D01*
X169685000Y-78000000D01*
X169685000Y-77714561D01*
X169466534Y-77187138D01*
X169062862Y-76783466D01*
X168535439Y-76565000D01*
X167964561Y-76565000D01*
X167437138Y-76783466D01*
X167033466Y-77187138D01*
X166815000Y-77714561D01*
X162331447Y-77714561D01*
X162216534Y-77437138D01*
X161812862Y-77033466D01*
X161285439Y-76815000D01*
X160714561Y-76815000D01*
X160187138Y-77033466D01*
X159783466Y-77437138D01*
X159565000Y-77964561D01*
X154736961Y-77964561D01*
X154771904Y-77900961D01*
X154611041Y-77512577D01*
X154235134Y-77097611D01*
X153729041Y-76858086D01*
X153507000Y-76979371D01*
X153253000Y-76979371D01*
X153030959Y-76858086D01*
X152524866Y-77097611D01*
X152148959Y-77512577D01*
X151988096Y-77900961D01*
X151013685Y-77900961D01*
X150971740Y-77690091D01*
X150654577Y-77215423D01*
X150179909Y-76898260D01*
X149761333Y-76815000D01*
X149478667Y-76815000D01*
X149060091Y-76898260D01*
X148585423Y-77215423D01*
X148268260Y-77690091D01*
X148156887Y-78250000D01*
X143436630Y-78250000D01*
X143419778Y-77896546D01*
X143253864Y-77495995D01*
X143007745Y-77421861D01*
X142179605Y-78250000D01*
X141820395Y-78250000D01*
X141806252Y-78235858D01*
X141985858Y-78056252D01*
X142000000Y-78070395D01*
X142828139Y-77242255D01*
X142754005Y-76996136D01*
X142229884Y-76807746D01*
X143485750Y-75551881D01*
X143549371Y-75509371D01*
X143717788Y-75257317D01*
X143762000Y-75035048D01*
X143762000Y-75035047D01*
X143776928Y-74960000D01*
X143762000Y-74884953D01*
X143762000Y-73460621D01*
X143768959Y-73477423D01*
X144144866Y-73892389D01*
X144650959Y-74131914D01*
X144873000Y-74010629D01*
X144873000Y-72867000D01*
X145127000Y-72867000D01*
X145127000Y-74010629D01*
X145349041Y-74131914D01*
X145855134Y-73892389D01*
X146231041Y-73477423D01*
X146391904Y-73089039D01*
X146269915Y-72867000D01*
X145127000Y-72867000D01*
X144873000Y-72867000D01*
X144853000Y-72867000D01*
X144853000Y-72613000D01*
X144873000Y-72613000D01*
X144873000Y-72593000D01*
X145127000Y-72593000D01*
X145127000Y-72613000D01*
X146269915Y-72613000D01*
X146391904Y-72390961D01*
X146231041Y-72002577D01*
X145855134Y-71587611D01*
X145650892Y-71490947D01*
X146034577Y-71234577D01*
X146351740Y-70759909D01*
X146463113Y-70200000D01*
X146399157Y-69878473D01*
X151157010Y-65120620D01*
X151268260Y-65679909D01*
X151585423Y-66154577D01*
X151937758Y-66390000D01*
X151585423Y-66625423D01*
X151268260Y-67100091D01*
X151156887Y-67660000D01*
X151268260Y-68219909D01*
X151585423Y-68694577D01*
X151937758Y-68930000D01*
X151585423Y-69165423D01*
X151268260Y-69640091D01*
X151156887Y-70200000D01*
X151268260Y-70759909D01*
X151585423Y-71234577D01*
X151937758Y-71470000D01*
X151585423Y-71705423D01*
X151268260Y-72180091D01*
X151156887Y-72740000D01*
X151268260Y-73299909D01*
X151585423Y-73774577D01*
X152060091Y-74091740D01*
X152478667Y-74175000D01*
X152761333Y-74175000D01*
X153179909Y-74091740D01*
X153654577Y-73774577D01*
X153971740Y-73299909D01*
X154013684Y-73089039D01*
X155608096Y-73089039D01*
X155768959Y-73477423D01*
X156144866Y-73892389D01*
X156650959Y-74131914D01*
X156873000Y-74010629D01*
X156873000Y-72867000D01*
X157127000Y-72867000D01*
X157127000Y-74010629D01*
X157349041Y-74131914D01*
X157855134Y-73892389D01*
X158231041Y-73477423D01*
X158391904Y-73089039D01*
X158269915Y-72867000D01*
X157127000Y-72867000D01*
X156873000Y-72867000D01*
X155730085Y-72867000D01*
X155608096Y-73089039D01*
X154013684Y-73089039D01*
X154083113Y-72740000D01*
X153971740Y-72180091D01*
X153654577Y-71705423D01*
X153302242Y-71470000D01*
X153654577Y-71234577D01*
X153971740Y-70759909D01*
X154083113Y-70200000D01*
X153971740Y-69640091D01*
X153654577Y-69165423D01*
X153302242Y-68930000D01*
X153654577Y-68694577D01*
X153971740Y-68219909D01*
X154083113Y-67660000D01*
X153971740Y-67100091D01*
X153654577Y-66625423D01*
X153302242Y-66390000D01*
X153654577Y-66154577D01*
X153971740Y-65679909D01*
X154083113Y-65120000D01*
X153971740Y-64560091D01*
X153654577Y-64085423D01*
X153302242Y-63850000D01*
X153654577Y-63614577D01*
X153971740Y-63139909D01*
X154083113Y-62580000D01*
X153973512Y-62029001D01*
X155646488Y-62029001D01*
X155536887Y-62580000D01*
X155648260Y-63139909D01*
X155965423Y-63614577D01*
X156317758Y-63850000D01*
X155965423Y-64085423D01*
X155648260Y-64560091D01*
X155536887Y-65120000D01*
X155648260Y-65679909D01*
X155965423Y-66154577D01*
X156317758Y-66390000D01*
X155965423Y-66625423D01*
X155648260Y-67100091D01*
X155536887Y-67660000D01*
X155648260Y-68219909D01*
X155965423Y-68694577D01*
X156317758Y-68930000D01*
X155965423Y-69165423D01*
X155648260Y-69640091D01*
X155536887Y-70200000D01*
X155648260Y-70759909D01*
X155965423Y-71234577D01*
X156349108Y-71490947D01*
X156144866Y-71587611D01*
X155768959Y-72002577D01*
X155608096Y-72390961D01*
X155730085Y-72613000D01*
X156873000Y-72613000D01*
X156873000Y-72593000D01*
X157127000Y-72593000D01*
X157127000Y-72613000D01*
X158269915Y-72613000D01*
X158391904Y-72390961D01*
X158231041Y-72002577D01*
X157855134Y-71587611D01*
X157650892Y-71490947D01*
X158034577Y-71234577D01*
X158351740Y-70759909D01*
X158463113Y-70200000D01*
X158351740Y-69640091D01*
X158034577Y-69165423D01*
X157682242Y-68930000D01*
X158034577Y-68694577D01*
X158351740Y-68219909D01*
X158463113Y-67660000D01*
X158351740Y-67100091D01*
X158034577Y-66625423D01*
X157682242Y-66390000D01*
X158034577Y-66154577D01*
X158351740Y-65679909D01*
X158463113Y-65120000D01*
X158351740Y-64560091D01*
X158034577Y-64085423D01*
X157682242Y-63850000D01*
X158034577Y-63614577D01*
X158351740Y-63139909D01*
X158463113Y-62580000D01*
X158351740Y-62020091D01*
X158034577Y-61545423D01*
X157682242Y-61310000D01*
X158034577Y-61074577D01*
X158351740Y-60599909D01*
X158463113Y-60040000D01*
X158351740Y-59480091D01*
X158034577Y-59005423D01*
X157913894Y-58924785D01*
X158047765Y-58898157D01*
X158257809Y-58757809D01*
X158398157Y-58547765D01*
X158447440Y-58300000D01*
X158447440Y-56700000D01*
X158398157Y-56452235D01*
X158257809Y-56242191D01*
X158047765Y-56101843D01*
X157800000Y-56052560D01*
X156200000Y-56052560D01*
X155952235Y-56101843D01*
X155742191Y-56242191D01*
X155601843Y-56452235D01*
X155552560Y-56700000D01*
X155552560Y-58300000D01*
X155601843Y-58547765D01*
X155742191Y-58757809D01*
X155952235Y-58898157D01*
X156086106Y-58924785D01*
X155965423Y-59005423D01*
X155648260Y-59480091D01*
X155536887Y-60040000D01*
X155600843Y-60361527D01*
X155457369Y-60505001D01*
X153990618Y-60505001D01*
X154083113Y-60040000D01*
X153971740Y-59480091D01*
X153654577Y-59005423D01*
X153302242Y-58770000D01*
X153654577Y-58534577D01*
X153971740Y-58059909D01*
X154083113Y-57500000D01*
X153971740Y-56940091D01*
X153654577Y-56465423D01*
X153179909Y-56148260D01*
X152761333Y-56065000D01*
X152478667Y-56065000D01*
X152060091Y-56148260D01*
X151585423Y-56465423D01*
X151268260Y-56940091D01*
X151156887Y-57500000D01*
X151268260Y-58059909D01*
X151585423Y-58534577D01*
X151937758Y-58770000D01*
X151585423Y-59005423D01*
X151268260Y-59480091D01*
X151156887Y-60040000D01*
X151268260Y-60599909D01*
X151443794Y-60862614D01*
X150907250Y-61399158D01*
X150843629Y-61441668D01*
X150801118Y-61505290D01*
X150801117Y-61505291D01*
X150675212Y-61693722D01*
X150616072Y-61991039D01*
X150631000Y-62066087D01*
X150630999Y-63491370D01*
X146462990Y-67659380D01*
X146351740Y-67100091D01*
X146034577Y-66625423D01*
X145682242Y-66390000D01*
X146034577Y-66154577D01*
X146351740Y-65679909D01*
X146463113Y-65120000D01*
X146351740Y-64560091D01*
X146034577Y-64085423D01*
X145682242Y-63850000D01*
X146034577Y-63614577D01*
X146351740Y-63139909D01*
X146463113Y-62580000D01*
X146458051Y-62554551D01*
X146469999Y-62556928D01*
X146545042Y-62542001D01*
X146545047Y-62542001D01*
X146767316Y-62497789D01*
X147019370Y-62329372D01*
X147061882Y-62265748D01*
X147542631Y-61785000D01*
X147705874Y-61785000D01*
X148086280Y-61627431D01*
X148377431Y-61336280D01*
X148535000Y-60955874D01*
X148535000Y-60544126D01*
X148377431Y-60163720D01*
X148086280Y-59872569D01*
X147705874Y-59715000D01*
X147294126Y-59715000D01*
X146913720Y-59872569D01*
X146622569Y-60163720D01*
X146465000Y-60544126D01*
X146465000Y-60707369D01*
X146154369Y-61018001D01*
X146072380Y-61018001D01*
X146351740Y-60599909D01*
X146463113Y-60040000D01*
X146351740Y-59480091D01*
X146034577Y-59005423D01*
X145913894Y-58924785D01*
X146047765Y-58898157D01*
X146257809Y-58757809D01*
X146398157Y-58547765D01*
X146447440Y-58300000D01*
X146447440Y-56700000D01*
X146398157Y-56452235D01*
X146257809Y-56242191D01*
X146047765Y-56101843D01*
X145800000Y-56052560D01*
X144200000Y-56052560D01*
X143952235Y-56101843D01*
X143742191Y-56242191D01*
X143601843Y-56452235D01*
X143552560Y-56700000D01*
X143552560Y-58300000D01*
X143601843Y-58547765D01*
X143742191Y-58757809D01*
X143952235Y-58898157D01*
X144086106Y-58924785D01*
X143965423Y-59005423D01*
X143648260Y-59480091D01*
X143536887Y-60040000D01*
X143600843Y-60361527D01*
X141959939Y-62002430D01*
X141654577Y-61545423D01*
X141302242Y-61310000D01*
X141654577Y-61074577D01*
X141971740Y-60599909D01*
X142083113Y-60040000D01*
X141971740Y-59480091D01*
X141654577Y-59005423D01*
X141302242Y-58770000D01*
X141654577Y-58534577D01*
X141971740Y-58059909D01*
X142083113Y-57500000D01*
X141971740Y-56940091D01*
X141654577Y-56465423D01*
X141179909Y-56148260D01*
X140761333Y-56065000D01*
X140478667Y-56065000D01*
X140060091Y-56148260D01*
X139585423Y-56465423D01*
X139268260Y-56940091D01*
X139156887Y-57500000D01*
X139268260Y-58059909D01*
X139585423Y-58534577D01*
X139937758Y-58770000D01*
X139585423Y-59005423D01*
X139268260Y-59480091D01*
X139156887Y-60040000D01*
X139268260Y-60599909D01*
X139585423Y-61074577D01*
X139937758Y-61310000D01*
X139585423Y-61545423D01*
X139268260Y-62020091D01*
X139156887Y-62580000D01*
X139267076Y-63133958D01*
X139059684Y-63175211D01*
X138807630Y-63343628D01*
X138765119Y-63407250D01*
X135014253Y-67158117D01*
X134950629Y-67200629D01*
X134782212Y-67452684D01*
X134738000Y-67674953D01*
X134738000Y-67674957D01*
X134723073Y-67750000D01*
X134738000Y-67825043D01*
X134738001Y-78684368D01*
X134255824Y-79166545D01*
X134070625Y-78889375D01*
X133772239Y-78690000D01*
X134070625Y-78490625D01*
X134398839Y-77999418D01*
X134514092Y-77420000D01*
X134398839Y-76840582D01*
X134070625Y-76349375D01*
X133579418Y-76021161D01*
X133146256Y-75935000D01*
X132853744Y-75935000D01*
X132420582Y-76021161D01*
X131929375Y-76349375D01*
X131601161Y-76840582D01*
X131485908Y-77420000D01*
X131127000Y-77420000D01*
X131127000Y-73089039D01*
X131608096Y-73089039D01*
X131768959Y-73477423D01*
X132144866Y-73892389D01*
X132650959Y-74131914D01*
X132873000Y-74010629D01*
X132873000Y-72867000D01*
X133127000Y-72867000D01*
X133127000Y-74010629D01*
X133349041Y-74131914D01*
X133855134Y-73892389D01*
X134231041Y-73477423D01*
X134391904Y-73089039D01*
X134269915Y-72867000D01*
X133127000Y-72867000D01*
X132873000Y-72867000D01*
X131730085Y-72867000D01*
X131608096Y-73089039D01*
X131127000Y-73089039D01*
X131127000Y-60040000D01*
X131536887Y-60040000D01*
X131648260Y-60599909D01*
X131965423Y-61074577D01*
X132317758Y-61310000D01*
X131965423Y-61545423D01*
X131648260Y-62020091D01*
X131536887Y-62580000D01*
X131648260Y-63139909D01*
X131965423Y-63614577D01*
X132317758Y-63850000D01*
X131965423Y-64085423D01*
X131648260Y-64560091D01*
X131536887Y-65120000D01*
X131648260Y-65679909D01*
X131965423Y-66154577D01*
X132317758Y-66390000D01*
X131965423Y-66625423D01*
X131648260Y-67100091D01*
X131536887Y-67660000D01*
X131648260Y-68219909D01*
X131965423Y-68694577D01*
X132317758Y-68930000D01*
X131965423Y-69165423D01*
X131648260Y-69640091D01*
X131536887Y-70200000D01*
X131648260Y-70759909D01*
X131965423Y-71234577D01*
X132349108Y-71490947D01*
X132144866Y-71587611D01*
X131768959Y-72002577D01*
X131608096Y-72390961D01*
X131730085Y-72613000D01*
X132873000Y-72613000D01*
X132873000Y-72593000D01*
X133127000Y-72593000D01*
X133127000Y-72613000D01*
X134269915Y-72613000D01*
X134391904Y-72390961D01*
X134231041Y-72002577D01*
X133855134Y-71587611D01*
X133650892Y-71490947D01*
X134034577Y-71234577D01*
X134351740Y-70759909D01*
X134463113Y-70200000D01*
X134351740Y-69640091D01*
X134034577Y-69165423D01*
X133682242Y-68930000D01*
X134034577Y-68694577D01*
X134351740Y-68219909D01*
X134463113Y-67660000D01*
X134351740Y-67100091D01*
X134034577Y-66625423D01*
X133682242Y-66390000D01*
X134034577Y-66154577D01*
X134351740Y-65679909D01*
X134463113Y-65120000D01*
X134351740Y-64560091D01*
X134034577Y-64085423D01*
X133682242Y-63850000D01*
X134034577Y-63614577D01*
X134351740Y-63139909D01*
X134463113Y-62580000D01*
X134351740Y-62020091D01*
X134034577Y-61545423D01*
X133682242Y-61310000D01*
X134034577Y-61074577D01*
X134351740Y-60599909D01*
X134463113Y-60040000D01*
X134351740Y-59480091D01*
X134034577Y-59005423D01*
X133913894Y-58924785D01*
X134047765Y-58898157D01*
X134257809Y-58757809D01*
X134398157Y-58547765D01*
X134447440Y-58300000D01*
X134447440Y-56700000D01*
X134398157Y-56452235D01*
X134257809Y-56242191D01*
X134047765Y-56101843D01*
X133800000Y-56052560D01*
X132200000Y-56052560D01*
X131952235Y-56101843D01*
X131742191Y-56242191D01*
X131601843Y-56452235D01*
X131552560Y-56700000D01*
X131552560Y-58300000D01*
X131601843Y-58547765D01*
X131742191Y-58757809D01*
X131952235Y-58898157D01*
X132086106Y-58924785D01*
X131965423Y-59005423D01*
X131648260Y-59480091D01*
X131536887Y-60040000D01*
X131127000Y-60040000D01*
X131127000Y-54214561D01*
X139065000Y-54214561D01*
X139065000Y-54785439D01*
X139283466Y-55312862D01*
X139687138Y-55716534D01*
X140214561Y-55935000D01*
X140785439Y-55935000D01*
X141312862Y-55716534D01*
X141716534Y-55312862D01*
X141935000Y-54785439D01*
X141935000Y-54544126D01*
X147965000Y-54544126D01*
X147965000Y-54955874D01*
X148122569Y-55336280D01*
X148413720Y-55627431D01*
X148794126Y-55785000D01*
X149205874Y-55785000D01*
X149586280Y-55627431D01*
X149877431Y-55336280D01*
X150035000Y-54955874D01*
X150035000Y-54792630D01*
X151065631Y-53762000D01*
X151252457Y-53762000D01*
X151065000Y-54214561D01*
X151065000Y-54785439D01*
X151283466Y-55312862D01*
X151687138Y-55716534D01*
X152214561Y-55935000D01*
X152785439Y-55935000D01*
X153312862Y-55716534D01*
X153716534Y-55312862D01*
X153935000Y-54785439D01*
X153935000Y-54214561D01*
X153747543Y-53762000D01*
X155184370Y-53762000D01*
X155965000Y-54542631D01*
X155965000Y-54705874D01*
X156122569Y-55086280D01*
X156413720Y-55377431D01*
X156794126Y-55535000D01*
X157205874Y-55535000D01*
X157586280Y-55377431D01*
X157877431Y-55086280D01*
X158035000Y-54705874D01*
X158035000Y-54464561D01*
X163065000Y-54464561D01*
X163065000Y-55035439D01*
X163283466Y-55562862D01*
X163687138Y-55966534D01*
X164104525Y-56139422D01*
X164060091Y-56148260D01*
X163585423Y-56465423D01*
X163268260Y-56940091D01*
X163156887Y-57500000D01*
X163268260Y-58059909D01*
X163585423Y-58534577D01*
X163937758Y-58770000D01*
X163585423Y-59005423D01*
X163268260Y-59480091D01*
X163156887Y-60040000D01*
X163268260Y-60599909D01*
X163585423Y-61074577D01*
X163937758Y-61310000D01*
X163585423Y-61545423D01*
X163268260Y-62020091D01*
X163156887Y-62580000D01*
X163268260Y-63139909D01*
X163585423Y-63614577D01*
X163937758Y-63850000D01*
X163585423Y-64085423D01*
X163268260Y-64560091D01*
X163156887Y-65120000D01*
X163268260Y-65679909D01*
X163585423Y-66154577D01*
X163937758Y-66390000D01*
X163585423Y-66625423D01*
X163268260Y-67100091D01*
X163156887Y-67660000D01*
X163268260Y-68219909D01*
X163585423Y-68694577D01*
X163937758Y-68930000D01*
X163585423Y-69165423D01*
X163268260Y-69640091D01*
X163156887Y-70200000D01*
X163268260Y-70759909D01*
X163585423Y-71234577D01*
X163937758Y-71470000D01*
X163585423Y-71705423D01*
X163268260Y-72180091D01*
X163156887Y-72740000D01*
X163268260Y-73299909D01*
X163585423Y-73774577D01*
X164060091Y-74091740D01*
X164478667Y-74175000D01*
X164761333Y-74175000D01*
X165179909Y-74091740D01*
X165654577Y-73774577D01*
X165971740Y-73299909D01*
X165981667Y-73250000D01*
X166916887Y-73250000D01*
X167028260Y-73809909D01*
X167345423Y-74284577D01*
X167820091Y-74601740D01*
X168238667Y-74685000D01*
X168521333Y-74685000D01*
X168701527Y-74649157D01*
X170965000Y-76912631D01*
X170965000Y-77075874D01*
X171122569Y-77456280D01*
X171413720Y-77747431D01*
X171794126Y-77905000D01*
X172205874Y-77905000D01*
X172586280Y-77747431D01*
X172877431Y-77456280D01*
X173035000Y-77075874D01*
X173035000Y-76664126D01*
X172877431Y-76283720D01*
X172586280Y-75992569D01*
X172205874Y-75835000D01*
X172042631Y-75835000D01*
X169779157Y-73571527D01*
X169843113Y-73250000D01*
X169786336Y-72964561D01*
X174565000Y-72964561D01*
X174565000Y-73535439D01*
X174783466Y-74062862D01*
X175187138Y-74466534D01*
X175714561Y-74685000D01*
X176285439Y-74685000D01*
X176812862Y-74466534D01*
X177216534Y-74062862D01*
X177435000Y-73535439D01*
X177435000Y-72964561D01*
X177216534Y-72437138D01*
X176812862Y-72033466D01*
X176285439Y-71815000D01*
X175714561Y-71815000D01*
X175187138Y-72033466D01*
X174783466Y-72437138D01*
X174565000Y-72964561D01*
X169786336Y-72964561D01*
X169731740Y-72690091D01*
X169414577Y-72215423D01*
X168939909Y-71898260D01*
X168521333Y-71815000D01*
X168238667Y-71815000D01*
X167820091Y-71898260D01*
X167345423Y-72215423D01*
X167028260Y-72690091D01*
X166916887Y-73250000D01*
X165981667Y-73250000D01*
X166083113Y-72740000D01*
X165971740Y-72180091D01*
X165654577Y-71705423D01*
X165302242Y-71470000D01*
X165654577Y-71234577D01*
X165971740Y-70759909D01*
X166071626Y-70257745D01*
X167671861Y-70257745D01*
X167745995Y-70503864D01*
X168283223Y-70696965D01*
X168853454Y-70669778D01*
X169254005Y-70503864D01*
X169328139Y-70257745D01*
X168500000Y-69429605D01*
X167671861Y-70257745D01*
X166071626Y-70257745D01*
X166083113Y-70200000D01*
X165971740Y-69640091D01*
X165654577Y-69165423D01*
X165456726Y-69033223D01*
X167053035Y-69033223D01*
X167080222Y-69603454D01*
X167246136Y-70004005D01*
X167492255Y-70078139D01*
X168320395Y-69250000D01*
X168679605Y-69250000D01*
X169507745Y-70078139D01*
X169753864Y-70004005D01*
X169946965Y-69466777D01*
X169919778Y-68896546D01*
X169753864Y-68495995D01*
X169507745Y-68421861D01*
X168679605Y-69250000D01*
X168320395Y-69250000D01*
X167492255Y-68421861D01*
X167246136Y-68495995D01*
X167053035Y-69033223D01*
X165456726Y-69033223D01*
X165302242Y-68930000D01*
X165654577Y-68694577D01*
X165956808Y-68242255D01*
X167671861Y-68242255D01*
X168500000Y-69070395D01*
X169328139Y-68242255D01*
X169254005Y-67996136D01*
X168716777Y-67803035D01*
X168146546Y-67830222D01*
X167745995Y-67996136D01*
X167671861Y-68242255D01*
X165956808Y-68242255D01*
X165971740Y-68219909D01*
X166083113Y-67660000D01*
X165971740Y-67100091D01*
X165767301Y-66794126D01*
X169715000Y-66794126D01*
X169715000Y-67205874D01*
X169872569Y-67586280D01*
X169989371Y-67703082D01*
X169989370Y-71048289D01*
X169873939Y-71163720D01*
X169716370Y-71544126D01*
X169716370Y-71955874D01*
X169873939Y-72336280D01*
X170165090Y-72627431D01*
X170545496Y-72785000D01*
X170957244Y-72785000D01*
X171337650Y-72627431D01*
X171628801Y-72336280D01*
X171786370Y-71955874D01*
X171786370Y-71544126D01*
X171628801Y-71163720D01*
X171513370Y-71048289D01*
X171513370Y-68964561D01*
X172065000Y-68964561D01*
X172065000Y-69535439D01*
X172283466Y-70062862D01*
X172687138Y-70466534D01*
X173214561Y-70685000D01*
X173785439Y-70685000D01*
X174312862Y-70466534D01*
X174716534Y-70062862D01*
X174935000Y-69535439D01*
X174935000Y-68964561D01*
X174716534Y-68437138D01*
X174312862Y-68033466D01*
X173785439Y-67815000D01*
X173214561Y-67815000D01*
X172687138Y-68033466D01*
X172283466Y-68437138D01*
X172065000Y-68964561D01*
X171513370Y-68964561D01*
X171513370Y-67700341D01*
X171627431Y-67586280D01*
X171785000Y-67205874D01*
X171785000Y-66794126D01*
X171627431Y-66413720D01*
X171336280Y-66122569D01*
X170955874Y-65965000D01*
X170544126Y-65965000D01*
X170163720Y-66122569D01*
X169872569Y-66413720D01*
X169715000Y-66794126D01*
X165767301Y-66794126D01*
X165654577Y-66625423D01*
X165302242Y-66390000D01*
X165654577Y-66154577D01*
X165971740Y-65679909D01*
X166083113Y-65120000D01*
X165971740Y-64560091D01*
X165654577Y-64085423D01*
X165302242Y-63850000D01*
X165654577Y-63614577D01*
X165971740Y-63139909D01*
X166083113Y-62580000D01*
X165971740Y-62020091D01*
X165654577Y-61545423D01*
X165302242Y-61310000D01*
X165654577Y-61074577D01*
X165971740Y-60599909D01*
X166083113Y-60040000D01*
X167536887Y-60040000D01*
X167648260Y-60599909D01*
X167965423Y-61074577D01*
X168317758Y-61310000D01*
X167965423Y-61545423D01*
X167648260Y-62020091D01*
X167536887Y-62580000D01*
X167648260Y-63139909D01*
X167965423Y-63614577D01*
X168317758Y-63850000D01*
X167965423Y-64085423D01*
X167648260Y-64560091D01*
X167536887Y-65120000D01*
X167648260Y-65679909D01*
X167965423Y-66154577D01*
X168440091Y-66471740D01*
X168858667Y-66555000D01*
X169141333Y-66555000D01*
X169559909Y-66471740D01*
X170034577Y-66154577D01*
X170351740Y-65679909D01*
X170463113Y-65120000D01*
X175156887Y-65120000D01*
X175268260Y-65679909D01*
X175585423Y-66154577D01*
X176060091Y-66471740D01*
X176478667Y-66555000D01*
X176761333Y-66555000D01*
X177179909Y-66471740D01*
X177654577Y-66154577D01*
X177971740Y-65679909D01*
X178083113Y-65120000D01*
X177971740Y-64560091D01*
X177654577Y-64085423D01*
X177270892Y-63829053D01*
X177475134Y-63732389D01*
X177851041Y-63317423D01*
X178011904Y-62929039D01*
X177889915Y-62707000D01*
X176747000Y-62707000D01*
X176747000Y-62727000D01*
X176493000Y-62727000D01*
X176493000Y-62707000D01*
X175350085Y-62707000D01*
X175228096Y-62929039D01*
X175388959Y-63317423D01*
X175764866Y-63732389D01*
X175969108Y-63829053D01*
X175585423Y-64085423D01*
X175268260Y-64560091D01*
X175156887Y-65120000D01*
X170463113Y-65120000D01*
X170351740Y-64560091D01*
X170034577Y-64085423D01*
X169682242Y-63850000D01*
X170034577Y-63614577D01*
X170351740Y-63139909D01*
X170463113Y-62580000D01*
X170351740Y-62020091D01*
X170034577Y-61545423D01*
X169682242Y-61310000D01*
X170034577Y-61074577D01*
X170351740Y-60599909D01*
X170463113Y-60040000D01*
X170351740Y-59480091D01*
X170034577Y-59005423D01*
X169928082Y-58934265D01*
X170159698Y-58838327D01*
X170338327Y-58659699D01*
X170435000Y-58426310D01*
X170435000Y-57785750D01*
X170276250Y-57627000D01*
X169127000Y-57627000D01*
X169127000Y-57647000D01*
X168873000Y-57647000D01*
X168873000Y-57627000D01*
X167723750Y-57627000D01*
X167565000Y-57785750D01*
X167565000Y-58426310D01*
X167661673Y-58659699D01*
X167840302Y-58838327D01*
X168071918Y-58934265D01*
X167965423Y-59005423D01*
X167648260Y-59480091D01*
X167536887Y-60040000D01*
X166083113Y-60040000D01*
X165971740Y-59480091D01*
X165654577Y-59005423D01*
X165302242Y-58770000D01*
X165654577Y-58534577D01*
X165971740Y-58059909D01*
X166083113Y-57500000D01*
X175156887Y-57500000D01*
X175268260Y-58059909D01*
X175585423Y-58534577D01*
X175937758Y-58770000D01*
X175585423Y-59005423D01*
X175268260Y-59480091D01*
X175156887Y-60040000D01*
X175268260Y-60599909D01*
X175585423Y-61074577D01*
X175969108Y-61330947D01*
X175764866Y-61427611D01*
X175388959Y-61842577D01*
X175228096Y-62230961D01*
X175350085Y-62453000D01*
X176493000Y-62453000D01*
X176493000Y-62433000D01*
X176747000Y-62433000D01*
X176747000Y-62453000D01*
X177889915Y-62453000D01*
X178011904Y-62230961D01*
X177851041Y-61842577D01*
X177475134Y-61427611D01*
X177270892Y-61330947D01*
X177654577Y-61074577D01*
X177971740Y-60599909D01*
X178083113Y-60040000D01*
X177971740Y-59480091D01*
X177654577Y-59005423D01*
X177302242Y-58770000D01*
X177654577Y-58534577D01*
X177971740Y-58059909D01*
X178083113Y-57500000D01*
X177971740Y-56940091D01*
X177654577Y-56465423D01*
X177179909Y-56148260D01*
X176761333Y-56065000D01*
X176478667Y-56065000D01*
X176060091Y-56148260D01*
X175585423Y-56465423D01*
X175268260Y-56940091D01*
X175156887Y-57500000D01*
X166083113Y-57500000D01*
X165971740Y-56940091D01*
X165726919Y-56573690D01*
X167565000Y-56573690D01*
X167565000Y-57214250D01*
X167723750Y-57373000D01*
X168873000Y-57373000D01*
X168873000Y-56223750D01*
X169127000Y-56223750D01*
X169127000Y-57373000D01*
X170276250Y-57373000D01*
X170435000Y-57214250D01*
X170435000Y-56573690D01*
X170338327Y-56340301D01*
X170159698Y-56161673D01*
X169926309Y-56065000D01*
X169285750Y-56065000D01*
X169127000Y-56223750D01*
X168873000Y-56223750D01*
X168714250Y-56065000D01*
X168073691Y-56065000D01*
X167840302Y-56161673D01*
X167661673Y-56340301D01*
X167565000Y-56573690D01*
X165726919Y-56573690D01*
X165654577Y-56465423D01*
X165179909Y-56148260D01*
X164973337Y-56107170D01*
X165312862Y-55966534D01*
X165716534Y-55562862D01*
X165935000Y-55035439D01*
X165935000Y-55007745D01*
X169671861Y-55007745D01*
X169745995Y-55253864D01*
X170283223Y-55446965D01*
X170853454Y-55419778D01*
X171254005Y-55253864D01*
X171328139Y-55007745D01*
X170500000Y-54179605D01*
X169671861Y-55007745D01*
X165935000Y-55007745D01*
X165935000Y-54464561D01*
X165716534Y-53937138D01*
X165562619Y-53783223D01*
X169053035Y-53783223D01*
X169080222Y-54353454D01*
X169246136Y-54754005D01*
X169492255Y-54828139D01*
X170320395Y-54000000D01*
X170679605Y-54000000D01*
X171507745Y-54828139D01*
X171753864Y-54754005D01*
X171946965Y-54216777D01*
X171923021Y-53714561D01*
X174065000Y-53714561D01*
X174065000Y-54285439D01*
X174283466Y-54812862D01*
X174687138Y-55216534D01*
X175214561Y-55435000D01*
X175785439Y-55435000D01*
X176312862Y-55216534D01*
X176716534Y-54812862D01*
X176935000Y-54285439D01*
X176935000Y-53714561D01*
X176716534Y-53187138D01*
X176312862Y-52783466D01*
X175785439Y-52565000D01*
X175214561Y-52565000D01*
X174687138Y-52783466D01*
X174283466Y-53187138D01*
X174065000Y-53714561D01*
X171923021Y-53714561D01*
X171919778Y-53646546D01*
X171753864Y-53245995D01*
X171507745Y-53171861D01*
X170679605Y-54000000D01*
X170320395Y-54000000D01*
X169492255Y-53171861D01*
X169246136Y-53245995D01*
X169053035Y-53783223D01*
X165562619Y-53783223D01*
X165312862Y-53533466D01*
X164785439Y-53315000D01*
X164214561Y-53315000D01*
X163687138Y-53533466D01*
X163283466Y-53937138D01*
X163065000Y-54464561D01*
X158035000Y-54464561D01*
X158035000Y-54294126D01*
X157877431Y-53913720D01*
X157586280Y-53622569D01*
X157205874Y-53465000D01*
X157042631Y-53465000D01*
X156589630Y-53012000D01*
X165416891Y-53012000D01*
X165532322Y-53127431D01*
X165912728Y-53285000D01*
X166324476Y-53285000D01*
X166704882Y-53127431D01*
X166840058Y-52992255D01*
X169671861Y-52992255D01*
X170500000Y-53820395D01*
X171328139Y-52992255D01*
X171254005Y-52746136D01*
X170716777Y-52553035D01*
X170146546Y-52580222D01*
X169745995Y-52746136D01*
X169671861Y-52992255D01*
X166840058Y-52992255D01*
X166996033Y-52836280D01*
X167153602Y-52455874D01*
X167153602Y-52044126D01*
X166996033Y-51663720D01*
X166704882Y-51372569D01*
X166324476Y-51215000D01*
X165912728Y-51215000D01*
X165532322Y-51372569D01*
X165416891Y-51488000D01*
X149897711Y-51488000D01*
X149782280Y-51372569D01*
X149401874Y-51215000D01*
X148990126Y-51215000D01*
X148609720Y-51372569D01*
X148318569Y-51663720D01*
X148161000Y-52044126D01*
X148161000Y-52455874D01*
X148318569Y-52836280D01*
X148609720Y-53127431D01*
X148990126Y-53285000D01*
X149387369Y-53285000D01*
X148957370Y-53715000D01*
X148794126Y-53715000D01*
X148413720Y-53872569D01*
X148122569Y-54163720D01*
X147965000Y-54544126D01*
X141935000Y-54544126D01*
X141935000Y-54214561D01*
X141716534Y-53687138D01*
X141312862Y-53283466D01*
X140785439Y-53065000D01*
X140214561Y-53065000D01*
X139687138Y-53283466D01*
X139283466Y-53687138D01*
X139065000Y-54214561D01*
X131127000Y-54214561D01*
X131127000Y-51136296D01*
X131394101Y-51403397D01*
X132436083Y-51835000D01*
X133563917Y-51835000D01*
X134605899Y-51403397D01*
X135403397Y-50605899D01*
X135444053Y-50507745D01*
X139671861Y-50507745D01*
X139745995Y-50753864D01*
X140283223Y-50946965D01*
X140853454Y-50919778D01*
X141254005Y-50753864D01*
X141328139Y-50507745D01*
X151671861Y-50507745D01*
X151745995Y-50753864D01*
X152283223Y-50946965D01*
X152853454Y-50919778D01*
X153244635Y-50757745D01*
X163671861Y-50757745D01*
X163745995Y-51003864D01*
X164283223Y-51196965D01*
X164853454Y-51169778D01*
X165254005Y-51003864D01*
X165328139Y-50757745D01*
X164500000Y-49929605D01*
X163671861Y-50757745D01*
X153244635Y-50757745D01*
X153254005Y-50753864D01*
X153328139Y-50507745D01*
X152500000Y-49679605D01*
X151671861Y-50507745D01*
X141328139Y-50507745D01*
X140500000Y-49679605D01*
X139671861Y-50507745D01*
X135444053Y-50507745D01*
X135835000Y-49563917D01*
X135835000Y-49283223D01*
X139053035Y-49283223D01*
X139080222Y-49853454D01*
X139246136Y-50254005D01*
X139492255Y-50328139D01*
X140320395Y-49500000D01*
X140679605Y-49500000D01*
X141507745Y-50328139D01*
X141753864Y-50254005D01*
X141946965Y-49716777D01*
X141926295Y-49283223D01*
X151053035Y-49283223D01*
X151080222Y-49853454D01*
X151246136Y-50254005D01*
X151492255Y-50328139D01*
X152320395Y-49500000D01*
X152679605Y-49500000D01*
X153507745Y-50328139D01*
X153753864Y-50254005D01*
X153946965Y-49716777D01*
X153938214Y-49533223D01*
X163053035Y-49533223D01*
X163080222Y-50103454D01*
X163246136Y-50504005D01*
X163492255Y-50578139D01*
X164320395Y-49750000D01*
X164679605Y-49750000D01*
X165507745Y-50578139D01*
X165753864Y-50504005D01*
X165946965Y-49966777D01*
X165919778Y-49396546D01*
X165753864Y-48995995D01*
X165507745Y-48921861D01*
X164679605Y-49750000D01*
X164320395Y-49750000D01*
X163492255Y-48921861D01*
X163246136Y-48995995D01*
X163053035Y-49533223D01*
X153938214Y-49533223D01*
X153919778Y-49146546D01*
X153753864Y-48745995D01*
X153741448Y-48742255D01*
X163671861Y-48742255D01*
X164500000Y-49570395D01*
X165328139Y-48742255D01*
X165254005Y-48496136D01*
X164716777Y-48303035D01*
X164146546Y-48330222D01*
X163745995Y-48496136D01*
X163671861Y-48742255D01*
X153741448Y-48742255D01*
X153507745Y-48671861D01*
X152679605Y-49500000D01*
X152320395Y-49500000D01*
X151492255Y-48671861D01*
X151246136Y-48745995D01*
X151053035Y-49283223D01*
X141926295Y-49283223D01*
X141919778Y-49146546D01*
X141753864Y-48745995D01*
X141507745Y-48671861D01*
X140679605Y-49500000D01*
X140320395Y-49500000D01*
X139492255Y-48671861D01*
X139246136Y-48745995D01*
X139053035Y-49283223D01*
X135835000Y-49283223D01*
X135835000Y-48492255D01*
X139671861Y-48492255D01*
X140500000Y-49320395D01*
X141328139Y-48492255D01*
X151671861Y-48492255D01*
X152500000Y-49320395D01*
X153328139Y-48492255D01*
X153254005Y-48246136D01*
X152716777Y-48053035D01*
X152146546Y-48080222D01*
X151745995Y-48246136D01*
X151671861Y-48492255D01*
X141328139Y-48492255D01*
X141254005Y-48246136D01*
X140716777Y-48053035D01*
X140146546Y-48080222D01*
X139745995Y-48246136D01*
X139671861Y-48492255D01*
X135835000Y-48492255D01*
X135835000Y-48436083D01*
X135403397Y-47394101D01*
X135136296Y-47127000D01*
X174863704Y-47127000D01*
X174596603Y-47394101D01*
X174596603Y-47394101D01*
G37*
X174596603Y-47394101D02*
X174165000Y-48436083D01*
X174165000Y-49563917D01*
X174596603Y-50605899D01*
X175394101Y-51403397D01*
X176436083Y-51835000D01*
X177563917Y-51835000D01*
X178605899Y-51403397D01*
X178873000Y-51136296D01*
X178873000Y-90863704D01*
X178605899Y-90596603D01*
X177563917Y-90165000D01*
X176436083Y-90165000D01*
X175394101Y-90596603D01*
X174596603Y-91394101D01*
X174165000Y-92436083D01*
X174165000Y-93563917D01*
X174596603Y-94605899D01*
X174863704Y-94873000D01*
X135136296Y-94873000D01*
X135403397Y-94605899D01*
X135835000Y-93563917D01*
X135835000Y-92436083D01*
X135716501Y-92150000D01*
X141252560Y-92150000D01*
X141252560Y-93850000D01*
X141301843Y-94097765D01*
X141442191Y-94307809D01*
X141652235Y-94448157D01*
X141900000Y-94497440D01*
X143600000Y-94497440D01*
X143847765Y-94448157D01*
X144057809Y-94307809D01*
X144198157Y-94097765D01*
X144207184Y-94052381D01*
X144219375Y-94070625D01*
X144710582Y-94398839D01*
X145143744Y-94485000D01*
X145436256Y-94485000D01*
X145869418Y-94398839D01*
X146360625Y-94070625D01*
X146688839Y-93579418D01*
X146804092Y-93000000D01*
X146688839Y-92420582D01*
X146508042Y-92150000D01*
X151002560Y-92150000D01*
X151002560Y-93850000D01*
X151051843Y-94097765D01*
X151192191Y-94307809D01*
X151402235Y-94448157D01*
X151650000Y-94497440D01*
X153350000Y-94497440D01*
X153597765Y-94448157D01*
X153807809Y-94307809D01*
X153948157Y-94097765D01*
X153957184Y-94052381D01*
X153969375Y-94070625D01*
X154460582Y-94398839D01*
X154893744Y-94485000D01*
X155186256Y-94485000D01*
X155619418Y-94398839D01*
X156110625Y-94070625D01*
X156438839Y-93579418D01*
X156497252Y-93285750D01*
X161265000Y-93285750D01*
X161265000Y-93976309D01*
X161361673Y-94209698D01*
X161540301Y-94388327D01*
X161773690Y-94485000D01*
X162464250Y-94485000D01*
X162623000Y-94326250D01*
X162623000Y-93127000D01*
X161423750Y-93127000D01*
X161265000Y-93285750D01*
X156497252Y-93285750D01*
X156554092Y-93000000D01*
X156438839Y-92420582D01*
X156173645Y-92023691D01*
X161265000Y-92023691D01*
X161265000Y-92714250D01*
X161423750Y-92873000D01*
X162623000Y-92873000D01*
X162623000Y-91673750D01*
X162877000Y-91673750D01*
X162877000Y-92873000D01*
X162897000Y-92873000D01*
X162897000Y-93127000D01*
X162877000Y-93127000D01*
X162877000Y-94326250D01*
X163035750Y-94485000D01*
X163726310Y-94485000D01*
X163959699Y-94388327D01*
X164138327Y-94209698D01*
X164204904Y-94048967D01*
X164219375Y-94070625D01*
X164710582Y-94398839D01*
X165143744Y-94485000D01*
X165436256Y-94485000D01*
X165869418Y-94398839D01*
X166360625Y-94070625D01*
X166688839Y-93579418D01*
X166804092Y-93000000D01*
X166688839Y-92420582D01*
X166360625Y-91929375D01*
X165869418Y-91601161D01*
X165436256Y-91515000D01*
X165143744Y-91515000D01*
X164710582Y-91601161D01*
X164219375Y-91929375D01*
X164204904Y-91951033D01*
X164138327Y-91790302D01*
X163959699Y-91611673D01*
X163726310Y-91515000D01*
X163035750Y-91515000D01*
X162877000Y-91673750D01*
X162623000Y-91673750D01*
X162464250Y-91515000D01*
X161773690Y-91515000D01*
X161540301Y-91611673D01*
X161361673Y-91790302D01*
X161265000Y-92023691D01*
X156173645Y-92023691D01*
X156110625Y-91929375D01*
X155619418Y-91601161D01*
X155186256Y-91515000D01*
X154893744Y-91515000D01*
X154460582Y-91601161D01*
X153969375Y-91929375D01*
X153957184Y-91947619D01*
X153948157Y-91902235D01*
X153807809Y-91692191D01*
X153597765Y-91551843D01*
X153350000Y-91502560D01*
X151650000Y-91502560D01*
X151402235Y-91551843D01*
X151192191Y-91692191D01*
X151051843Y-91902235D01*
X151002560Y-92150000D01*
X146508042Y-92150000D01*
X146360625Y-91929375D01*
X145869418Y-91601161D01*
X145436256Y-91515000D01*
X145143744Y-91515000D01*
X144710582Y-91601161D01*
X144219375Y-91929375D01*
X144207184Y-91947619D01*
X144198157Y-91902235D01*
X144057809Y-91692191D01*
X143847765Y-91551843D01*
X143600000Y-91502560D01*
X141900000Y-91502560D01*
X141652235Y-91551843D01*
X141442191Y-91692191D01*
X141301843Y-91902235D01*
X141252560Y-92150000D01*
X135716501Y-92150000D01*
X135403397Y-91394101D01*
X134605899Y-90596603D01*
X133563917Y-90165000D01*
X132436083Y-90165000D01*
X131394101Y-90596603D01*
X131127000Y-90863704D01*
X131127000Y-87222119D01*
X170603000Y-87222119D01*
X170603000Y-87777881D01*
X170815680Y-88291337D01*
X171208663Y-88684320D01*
X171722119Y-88897000D01*
X172277881Y-88897000D01*
X172791337Y-88684320D01*
X173000000Y-88475657D01*
X173208663Y-88684320D01*
X173722119Y-88897000D01*
X174277881Y-88897000D01*
X174791337Y-88684320D01*
X175000000Y-88475657D01*
X175208663Y-88684320D01*
X175722119Y-88897000D01*
X176277881Y-88897000D01*
X176791337Y-88684320D01*
X177184320Y-88291337D01*
X177397000Y-87777881D01*
X177397000Y-87222119D01*
X177184320Y-86708663D01*
X176791337Y-86315680D01*
X176277881Y-86103000D01*
X175722119Y-86103000D01*
X175208663Y-86315680D01*
X175000000Y-86524343D01*
X174791337Y-86315680D01*
X174277881Y-86103000D01*
X173722119Y-86103000D01*
X173208663Y-86315680D01*
X173000000Y-86524343D01*
X172791337Y-86315680D01*
X172277881Y-86103000D01*
X171722119Y-86103000D01*
X171208663Y-86315680D01*
X170815680Y-86708663D01*
X170603000Y-87222119D01*
X131127000Y-87222119D01*
X131127000Y-84694670D01*
X141425000Y-84694670D01*
X141425000Y-85305330D01*
X141658690Y-85869507D01*
X142090493Y-86301310D01*
X142654670Y-86535000D01*
X143265330Y-86535000D01*
X143829507Y-86301310D01*
X143998725Y-86132092D01*
X144001843Y-86147765D01*
X144142191Y-86357809D01*
X144352235Y-86498157D01*
X144600000Y-86547440D01*
X146400000Y-86547440D01*
X146647765Y-86498157D01*
X146857809Y-86357809D01*
X146998157Y-86147765D01*
X147047440Y-85900000D01*
X147047440Y-84694670D01*
X151175000Y-84694670D01*
X151175000Y-85305330D01*
X151408690Y-85869507D01*
X151840493Y-86301310D01*
X152404670Y-86535000D01*
X153015330Y-86535000D01*
X153579507Y-86301310D01*
X153748725Y-86132092D01*
X153751843Y-86147765D01*
X153892191Y-86357809D01*
X154102235Y-86498157D01*
X154350000Y-86547440D01*
X156150000Y-86547440D01*
X156397765Y-86498157D01*
X156607809Y-86357809D01*
X156674670Y-86257745D01*
X161921861Y-86257745D01*
X161995995Y-86503864D01*
X162533223Y-86696965D01*
X163103454Y-86669778D01*
X163504005Y-86503864D01*
X163578139Y-86257745D01*
X162750000Y-85429605D01*
X161921861Y-86257745D01*
X156674670Y-86257745D01*
X156748157Y-86147765D01*
X156797440Y-85900000D01*
X156797440Y-85033223D01*
X161303035Y-85033223D01*
X161330222Y-85603454D01*
X161496136Y-86004005D01*
X161742255Y-86078139D01*
X162570395Y-85250000D01*
X162929605Y-85250000D01*
X163757745Y-86078139D01*
X163805307Y-86063813D01*
X163851843Y-86297765D01*
X163992191Y-86507809D01*
X164202235Y-86648157D01*
X164450000Y-86697440D01*
X166050000Y-86697440D01*
X166297765Y-86648157D01*
X166507809Y-86507809D01*
X166648157Y-86297765D01*
X166697440Y-86050000D01*
X166697440Y-84450000D01*
X166648157Y-84202235D01*
X166507809Y-83992191D01*
X166297765Y-83851843D01*
X166050000Y-83802560D01*
X164450000Y-83802560D01*
X164202235Y-83851843D01*
X163992191Y-83992191D01*
X163851843Y-84202235D01*
X163805307Y-84436187D01*
X163757745Y-84421861D01*
X162929605Y-85250000D01*
X162570395Y-85250000D01*
X161742255Y-84421861D01*
X161496136Y-84495995D01*
X161303035Y-85033223D01*
X156797440Y-85033223D01*
X156797440Y-84242255D01*
X161921861Y-84242255D01*
X162750000Y-85070395D01*
X163578139Y-84242255D01*
X163504005Y-83996136D01*
X162966777Y-83803035D01*
X162396546Y-83830222D01*
X161995995Y-83996136D01*
X161921861Y-84242255D01*
X156797440Y-84242255D01*
X156797440Y-84100000D01*
X156748157Y-83852235D01*
X156607809Y-83642191D01*
X156397765Y-83501843D01*
X156150000Y-83452560D01*
X154350000Y-83452560D01*
X154102235Y-83501843D01*
X153892191Y-83642191D01*
X153751843Y-83852235D01*
X153748725Y-83867908D01*
X153579507Y-83698690D01*
X153015330Y-83465000D01*
X152404670Y-83465000D01*
X151840493Y-83698690D01*
X151408690Y-84130493D01*
X151175000Y-84694670D01*
X147047440Y-84694670D01*
X147047440Y-84100000D01*
X146998157Y-83852235D01*
X146857809Y-83642191D01*
X146647765Y-83501843D01*
X146400000Y-83452560D01*
X144600000Y-83452560D01*
X144352235Y-83501843D01*
X144142191Y-83642191D01*
X144001843Y-83852235D01*
X143998725Y-83867908D01*
X143829507Y-83698690D01*
X143265330Y-83465000D01*
X142654670Y-83465000D01*
X142090493Y-83698690D01*
X141658690Y-84130493D01*
X141425000Y-84694670D01*
X131127000Y-84694670D01*
X131127000Y-82785750D01*
X131515000Y-82785750D01*
X131515000Y-83476310D01*
X131611673Y-83709699D01*
X131790302Y-83888327D01*
X132023691Y-83985000D01*
X132714250Y-83985000D01*
X132873000Y-83826250D01*
X132873000Y-82627000D01*
X133127000Y-82627000D01*
X133127000Y-83826250D01*
X133285750Y-83985000D01*
X133976309Y-83985000D01*
X134209698Y-83888327D01*
X134388327Y-83709699D01*
X134485000Y-83476310D01*
X134485000Y-82785750D01*
X136515000Y-82785750D01*
X136515000Y-83476310D01*
X136611673Y-83709699D01*
X136790302Y-83888327D01*
X137023691Y-83985000D01*
X137714250Y-83985000D01*
X137873000Y-83826250D01*
X137873000Y-82627000D01*
X138127000Y-82627000D01*
X138127000Y-83826250D01*
X138285750Y-83985000D01*
X138976309Y-83985000D01*
X139209698Y-83888327D01*
X139388327Y-83709699D01*
X139485000Y-83476310D01*
X139485000Y-82785750D01*
X139326250Y-82627000D01*
X138127000Y-82627000D01*
X137873000Y-82627000D01*
X136673750Y-82627000D01*
X136515000Y-82785750D01*
X134485000Y-82785750D01*
X134326250Y-82627000D01*
X133127000Y-82627000D01*
X132873000Y-82627000D01*
X131673750Y-82627000D01*
X131515000Y-82785750D01*
X131127000Y-82785750D01*
X131127000Y-77420000D01*
X131485908Y-77420000D01*
X131601161Y-77999418D01*
X131929375Y-78490625D01*
X132227761Y-78690000D01*
X131929375Y-78889375D01*
X131601161Y-79380582D01*
X131485908Y-79960000D01*
X131601161Y-80539418D01*
X131929375Y-81030625D01*
X131951033Y-81045096D01*
X131790302Y-81111673D01*
X131611673Y-81290301D01*
X131515000Y-81523690D01*
X131515000Y-82214250D01*
X131673750Y-82373000D01*
X132873000Y-82373000D01*
X132873000Y-82353000D01*
X133127000Y-82353000D01*
X133127000Y-82373000D01*
X134326250Y-82373000D01*
X134485000Y-82214250D01*
X134485000Y-81523690D01*
X134388327Y-81290301D01*
X134209698Y-81111673D01*
X134048967Y-81045096D01*
X134070625Y-81030625D01*
X134270626Y-80731302D01*
X134500000Y-80776928D01*
X134797318Y-80717787D01*
X135049371Y-80549371D01*
X135091883Y-80485747D01*
X135985749Y-79591882D01*
X136049371Y-79549371D01*
X136217788Y-79297317D01*
X136262000Y-79075048D01*
X136262000Y-79075047D01*
X136276928Y-79000000D01*
X136262000Y-78924953D01*
X136262000Y-68065630D01*
X139165306Y-65162325D01*
X139268260Y-65679909D01*
X139585423Y-66154577D01*
X139937758Y-66390000D01*
X139585423Y-66625423D01*
X139268260Y-67100091D01*
X139156887Y-67660000D01*
X139268260Y-68219909D01*
X139585423Y-68694577D01*
X139937758Y-68930000D01*
X139585423Y-69165423D01*
X139268260Y-69640091D01*
X139156887Y-70200000D01*
X139268260Y-70759909D01*
X139585423Y-71234577D01*
X139937758Y-71470000D01*
X139585423Y-71705423D01*
X139268260Y-72180091D01*
X139156887Y-72740000D01*
X139268260Y-73299909D01*
X139585423Y-73774577D01*
X140060091Y-74091740D01*
X140478667Y-74175000D01*
X140761333Y-74175000D01*
X141179909Y-74091740D01*
X141654577Y-73774577D01*
X141971740Y-73299909D01*
X142083113Y-72740000D01*
X141971740Y-72180091D01*
X141654577Y-71705423D01*
X141302242Y-71470000D01*
X141654577Y-71234577D01*
X141971740Y-70759909D01*
X142083113Y-70200000D01*
X141971740Y-69640091D01*
X141654577Y-69165423D01*
X141302242Y-68930000D01*
X141654577Y-68694577D01*
X141971740Y-68219909D01*
X142083113Y-67660000D01*
X141971740Y-67100091D01*
X141654577Y-66625423D01*
X141302242Y-66390000D01*
X141654577Y-66154577D01*
X141971740Y-65679909D01*
X142083113Y-65120000D01*
X141971740Y-64560091D01*
X141805834Y-64311796D01*
X143537010Y-62580620D01*
X143648260Y-63139909D01*
X143965423Y-63614577D01*
X144317758Y-63850000D01*
X143965423Y-64085423D01*
X143648260Y-64560091D01*
X143536887Y-65120000D01*
X143648260Y-65679909D01*
X143965423Y-66154577D01*
X144317758Y-66390000D01*
X143965423Y-66625423D01*
X143648260Y-67100091D01*
X143536887Y-67660000D01*
X143600843Y-67981527D01*
X142514251Y-69068119D01*
X142450630Y-69110629D01*
X142408119Y-69174251D01*
X142408118Y-69174252D01*
X142282213Y-69362683D01*
X142223073Y-69660000D01*
X142238001Y-69735048D01*
X142238000Y-74644369D01*
X139505511Y-77376859D01*
X139398839Y-76840582D01*
X139070625Y-76349375D01*
X138579418Y-76021161D01*
X138146256Y-75935000D01*
X137853744Y-75935000D01*
X137420582Y-76021161D01*
X136929375Y-76349375D01*
X136601161Y-76840582D01*
X136485908Y-77420000D01*
X136601161Y-77999418D01*
X136929375Y-78490625D01*
X137227761Y-78690000D01*
X136929375Y-78889375D01*
X136601161Y-79380582D01*
X136485908Y-79960000D01*
X136601161Y-80539418D01*
X136929375Y-81030625D01*
X136951033Y-81045096D01*
X136790302Y-81111673D01*
X136611673Y-81290301D01*
X136515000Y-81523690D01*
X136515000Y-82214250D01*
X136673750Y-82373000D01*
X137873000Y-82373000D01*
X137873000Y-82353000D01*
X138127000Y-82353000D01*
X138127000Y-82373000D01*
X139326250Y-82373000D01*
X139477131Y-82222119D01*
X170603000Y-82222119D01*
X170603000Y-82777881D01*
X170815680Y-83291337D01*
X171208663Y-83684320D01*
X171722119Y-83897000D01*
X172277881Y-83897000D01*
X172791337Y-83684320D01*
X172995444Y-83480213D01*
X173199392Y-83480213D01*
X173268857Y-83722397D01*
X173792302Y-83909144D01*
X174347368Y-83881362D01*
X174731143Y-83722397D01*
X174800608Y-83480213D01*
X174000000Y-82679605D01*
X173199392Y-83480213D01*
X172995444Y-83480213D01*
X173184320Y-83291337D01*
X173294106Y-83026289D01*
X173820395Y-82500000D01*
X174179605Y-82500000D01*
X174705894Y-83026289D01*
X174815680Y-83291337D01*
X175208663Y-83684320D01*
X175722119Y-83897000D01*
X176277881Y-83897000D01*
X176791337Y-83684320D01*
X177184320Y-83291337D01*
X177397000Y-82777881D01*
X177397000Y-82222119D01*
X177184320Y-81708663D01*
X176791337Y-81315680D01*
X176277881Y-81103000D01*
X175722119Y-81103000D01*
X175208663Y-81315680D01*
X174815680Y-81708663D01*
X174705894Y-81973711D01*
X174179605Y-82500000D01*
X173820395Y-82500000D01*
X173294106Y-81973711D01*
X173184320Y-81708663D01*
X172995444Y-81519787D01*
X173199392Y-81519787D01*
X174000000Y-82320395D01*
X174800608Y-81519787D01*
X174731143Y-81277603D01*
X174207698Y-81090856D01*
X173652632Y-81118638D01*
X173268857Y-81277603D01*
X173199392Y-81519787D01*
X172995444Y-81519787D01*
X172791337Y-81315680D01*
X172277881Y-81103000D01*
X171722119Y-81103000D01*
X171208663Y-81315680D01*
X170815680Y-81708663D01*
X170603000Y-82222119D01*
X139477131Y-82222119D01*
X139485000Y-82214250D01*
X139485000Y-81523690D01*
X139388327Y-81290301D01*
X139209698Y-81111673D01*
X139048967Y-81045096D01*
X139070625Y-81030625D01*
X139398839Y-80539418D01*
X139514092Y-79960000D01*
X139441679Y-79595952D01*
X139779886Y-79257745D01*
X141171861Y-79257745D01*
X141245995Y-79503864D01*
X141783223Y-79696965D01*
X142353454Y-79669778D01*
X142754005Y-79503864D01*
X142828139Y-79257745D01*
X142000000Y-78429605D01*
X141171861Y-79257745D01*
X139779886Y-79257745D01*
X140573576Y-78464055D01*
X140580222Y-78603454D01*
X140746136Y-79004005D01*
X140992255Y-79078139D01*
X141820395Y-78250000D01*
X142179605Y-78250000D01*
X143007745Y-79078139D01*
X143253864Y-79004005D01*
X143446965Y-78466777D01*
X143436630Y-78250000D01*
X148156887Y-78250000D01*
X148268260Y-78809909D01*
X148585423Y-79284577D01*
X149060091Y-79601740D01*
X149478667Y-79685000D01*
X149761333Y-79685000D01*
X150179909Y-79601740D01*
X150654577Y-79284577D01*
X150971740Y-78809909D01*
X151013684Y-78599039D01*
X151988096Y-78599039D01*
X152148959Y-78987423D01*
X152524866Y-79402389D01*
X153030959Y-79641914D01*
X153253000Y-79520629D01*
X153253000Y-78377000D01*
X153507000Y-78377000D01*
X153507000Y-79520629D01*
X153729041Y-79641914D01*
X154235134Y-79402389D01*
X154611041Y-78987423D01*
X154771904Y-78599039D01*
X154649915Y-78377000D01*
X153507000Y-78377000D01*
X153253000Y-78377000D01*
X152110085Y-78377000D01*
X151988096Y-78599039D01*
X151013684Y-78599039D01*
X151083113Y-78250000D01*
X151013685Y-77900961D01*
X151988096Y-77900961D01*
X152110085Y-78123000D01*
X153253000Y-78123000D01*
X153253000Y-76979371D01*
X153507000Y-76979371D01*
X153507000Y-78123000D01*
X154649915Y-78123000D01*
X154736961Y-77964561D01*
X159565000Y-77964561D01*
X159565000Y-78535439D01*
X159783466Y-79062862D01*
X160187138Y-79466534D01*
X160714561Y-79685000D01*
X161285439Y-79685000D01*
X161812862Y-79466534D01*
X162216534Y-79062862D01*
X162435000Y-78535439D01*
X162435000Y-77964561D01*
X162331447Y-77714561D01*
X166815000Y-77714561D01*
X166815000Y-78285439D01*
X167033466Y-78812862D01*
X167437138Y-79216534D01*
X167964561Y-79435000D01*
X168535439Y-79435000D01*
X169062862Y-79216534D01*
X169466534Y-78812862D01*
X169685000Y-78285439D01*
X169685000Y-78000000D01*
X174406887Y-78000000D01*
X174518260Y-78559909D01*
X174835423Y-79034577D01*
X175310091Y-79351740D01*
X175728667Y-79435000D01*
X176011333Y-79435000D01*
X176429909Y-79351740D01*
X176904577Y-79034577D01*
X177221740Y-78559909D01*
X177333113Y-78000000D01*
X177221740Y-77440091D01*
X176904577Y-76965423D01*
X176429909Y-76648260D01*
X176011333Y-76565000D01*
X175728667Y-76565000D01*
X175310091Y-76648260D01*
X174835423Y-76965423D01*
X174518260Y-77440091D01*
X174406887Y-78000000D01*
X169685000Y-78000000D01*
X169685000Y-77714561D01*
X169466534Y-77187138D01*
X169062862Y-76783466D01*
X168535439Y-76565000D01*
X167964561Y-76565000D01*
X167437138Y-76783466D01*
X167033466Y-77187138D01*
X166815000Y-77714561D01*
X162331447Y-77714561D01*
X162216534Y-77437138D01*
X161812862Y-77033466D01*
X161285439Y-76815000D01*
X160714561Y-76815000D01*
X160187138Y-77033466D01*
X159783466Y-77437138D01*
X159565000Y-77964561D01*
X154736961Y-77964561D01*
X154771904Y-77900961D01*
X154611041Y-77512577D01*
X154235134Y-77097611D01*
X153729041Y-76858086D01*
X153507000Y-76979371D01*
X153253000Y-76979371D01*
X153030959Y-76858086D01*
X152524866Y-77097611D01*
X152148959Y-77512577D01*
X151988096Y-77900961D01*
X151013685Y-77900961D01*
X150971740Y-77690091D01*
X150654577Y-77215423D01*
X150179909Y-76898260D01*
X149761333Y-76815000D01*
X149478667Y-76815000D01*
X149060091Y-76898260D01*
X148585423Y-77215423D01*
X148268260Y-77690091D01*
X148156887Y-78250000D01*
X143436630Y-78250000D01*
X143419778Y-77896546D01*
X143253864Y-77495995D01*
X143007745Y-77421861D01*
X142179605Y-78250000D01*
X141820395Y-78250000D01*
X141806252Y-78235858D01*
X141985858Y-78056252D01*
X142000000Y-78070395D01*
X142828139Y-77242255D01*
X142754005Y-76996136D01*
X142229884Y-76807746D01*
X143485750Y-75551881D01*
X143549371Y-75509371D01*
X143717788Y-75257317D01*
X143762000Y-75035048D01*
X143762000Y-75035047D01*
X143776928Y-74960000D01*
X143762000Y-74884953D01*
X143762000Y-73460621D01*
X143768959Y-73477423D01*
X144144866Y-73892389D01*
X144650959Y-74131914D01*
X144873000Y-74010629D01*
X144873000Y-72867000D01*
X145127000Y-72867000D01*
X145127000Y-74010629D01*
X145349041Y-74131914D01*
X145855134Y-73892389D01*
X146231041Y-73477423D01*
X146391904Y-73089039D01*
X146269915Y-72867000D01*
X145127000Y-72867000D01*
X144873000Y-72867000D01*
X144853000Y-72867000D01*
X144853000Y-72613000D01*
X144873000Y-72613000D01*
X144873000Y-72593000D01*
X145127000Y-72593000D01*
X145127000Y-72613000D01*
X146269915Y-72613000D01*
X146391904Y-72390961D01*
X146231041Y-72002577D01*
X145855134Y-71587611D01*
X145650892Y-71490947D01*
X146034577Y-71234577D01*
X146351740Y-70759909D01*
X146463113Y-70200000D01*
X146399157Y-69878473D01*
X151157010Y-65120620D01*
X151268260Y-65679909D01*
X151585423Y-66154577D01*
X151937758Y-66390000D01*
X151585423Y-66625423D01*
X151268260Y-67100091D01*
X151156887Y-67660000D01*
X151268260Y-68219909D01*
X151585423Y-68694577D01*
X151937758Y-68930000D01*
X151585423Y-69165423D01*
X151268260Y-69640091D01*
X151156887Y-70200000D01*
X151268260Y-70759909D01*
X151585423Y-71234577D01*
X151937758Y-71470000D01*
X151585423Y-71705423D01*
X151268260Y-72180091D01*
X151156887Y-72740000D01*
X151268260Y-73299909D01*
X151585423Y-73774577D01*
X152060091Y-74091740D01*
X152478667Y-74175000D01*
X152761333Y-74175000D01*
X153179909Y-74091740D01*
X153654577Y-73774577D01*
X153971740Y-73299909D01*
X154013684Y-73089039D01*
X155608096Y-73089039D01*
X155768959Y-73477423D01*
X156144866Y-73892389D01*
X156650959Y-74131914D01*
X156873000Y-74010629D01*
X156873000Y-72867000D01*
X157127000Y-72867000D01*
X157127000Y-74010629D01*
X157349041Y-74131914D01*
X157855134Y-73892389D01*
X158231041Y-73477423D01*
X158391904Y-73089039D01*
X158269915Y-72867000D01*
X157127000Y-72867000D01*
X156873000Y-72867000D01*
X155730085Y-72867000D01*
X155608096Y-73089039D01*
X154013684Y-73089039D01*
X154083113Y-72740000D01*
X153971740Y-72180091D01*
X153654577Y-71705423D01*
X153302242Y-71470000D01*
X153654577Y-71234577D01*
X153971740Y-70759909D01*
X154083113Y-70200000D01*
X153971740Y-69640091D01*
X153654577Y-69165423D01*
X153302242Y-68930000D01*
X153654577Y-68694577D01*
X153971740Y-68219909D01*
X154083113Y-67660000D01*
X153971740Y-67100091D01*
X153654577Y-66625423D01*
X153302242Y-66390000D01*
X153654577Y-66154577D01*
X153971740Y-65679909D01*
X154083113Y-65120000D01*
X153971740Y-64560091D01*
X153654577Y-64085423D01*
X153302242Y-63850000D01*
X153654577Y-63614577D01*
X153971740Y-63139909D01*
X154083113Y-62580000D01*
X153973512Y-62029001D01*
X155646488Y-62029001D01*
X155536887Y-62580000D01*
X155648260Y-63139909D01*
X155965423Y-63614577D01*
X156317758Y-63850000D01*
X155965423Y-64085423D01*
X155648260Y-64560091D01*
X155536887Y-65120000D01*
X155648260Y-65679909D01*
X155965423Y-66154577D01*
X156317758Y-66390000D01*
X155965423Y-66625423D01*
X155648260Y-67100091D01*
X155536887Y-67660000D01*
X155648260Y-68219909D01*
X155965423Y-68694577D01*
X156317758Y-68930000D01*
X155965423Y-69165423D01*
X155648260Y-69640091D01*
X155536887Y-70200000D01*
X155648260Y-70759909D01*
X155965423Y-71234577D01*
X156349108Y-71490947D01*
X156144866Y-71587611D01*
X155768959Y-72002577D01*
X155608096Y-72390961D01*
X155730085Y-72613000D01*
X156873000Y-72613000D01*
X156873000Y-72593000D01*
X157127000Y-72593000D01*
X157127000Y-72613000D01*
X158269915Y-72613000D01*
X158391904Y-72390961D01*
X158231041Y-72002577D01*
X157855134Y-71587611D01*
X157650892Y-71490947D01*
X158034577Y-71234577D01*
X158351740Y-70759909D01*
X158463113Y-70200000D01*
X158351740Y-69640091D01*
X158034577Y-69165423D01*
X157682242Y-68930000D01*
X158034577Y-68694577D01*
X158351740Y-68219909D01*
X158463113Y-67660000D01*
X158351740Y-67100091D01*
X158034577Y-66625423D01*
X157682242Y-66390000D01*
X158034577Y-66154577D01*
X158351740Y-65679909D01*
X158463113Y-65120000D01*
X158351740Y-64560091D01*
X158034577Y-64085423D01*
X157682242Y-63850000D01*
X158034577Y-63614577D01*
X158351740Y-63139909D01*
X158463113Y-62580000D01*
X158351740Y-62020091D01*
X158034577Y-61545423D01*
X157682242Y-61310000D01*
X158034577Y-61074577D01*
X158351740Y-60599909D01*
X158463113Y-60040000D01*
X158351740Y-59480091D01*
X158034577Y-59005423D01*
X157913894Y-58924785D01*
X158047765Y-58898157D01*
X158257809Y-58757809D01*
X158398157Y-58547765D01*
X158447440Y-58300000D01*
X158447440Y-56700000D01*
X158398157Y-56452235D01*
X158257809Y-56242191D01*
X158047765Y-56101843D01*
X157800000Y-56052560D01*
X156200000Y-56052560D01*
X155952235Y-56101843D01*
X155742191Y-56242191D01*
X155601843Y-56452235D01*
X155552560Y-56700000D01*
X155552560Y-58300000D01*
X155601843Y-58547765D01*
X155742191Y-58757809D01*
X155952235Y-58898157D01*
X156086106Y-58924785D01*
X155965423Y-59005423D01*
X155648260Y-59480091D01*
X155536887Y-60040000D01*
X155600843Y-60361527D01*
X155457369Y-60505001D01*
X153990618Y-60505001D01*
X154083113Y-60040000D01*
X153971740Y-59480091D01*
X153654577Y-59005423D01*
X153302242Y-58770000D01*
X153654577Y-58534577D01*
X153971740Y-58059909D01*
X154083113Y-57500000D01*
X153971740Y-56940091D01*
X153654577Y-56465423D01*
X153179909Y-56148260D01*
X152761333Y-56065000D01*
X152478667Y-56065000D01*
X152060091Y-56148260D01*
X151585423Y-56465423D01*
X151268260Y-56940091D01*
X151156887Y-57500000D01*
X151268260Y-58059909D01*
X151585423Y-58534577D01*
X151937758Y-58770000D01*
X151585423Y-59005423D01*
X151268260Y-59480091D01*
X151156887Y-60040000D01*
X151268260Y-60599909D01*
X151443794Y-60862614D01*
X150907250Y-61399158D01*
X150843629Y-61441668D01*
X150801118Y-61505290D01*
X150801117Y-61505291D01*
X150675212Y-61693722D01*
X150616072Y-61991039D01*
X150631000Y-62066087D01*
X150630999Y-63491370D01*
X146462990Y-67659380D01*
X146351740Y-67100091D01*
X146034577Y-66625423D01*
X145682242Y-66390000D01*
X146034577Y-66154577D01*
X146351740Y-65679909D01*
X146463113Y-65120000D01*
X146351740Y-64560091D01*
X146034577Y-64085423D01*
X145682242Y-63850000D01*
X146034577Y-63614577D01*
X146351740Y-63139909D01*
X146463113Y-62580000D01*
X146458051Y-62554551D01*
X146469999Y-62556928D01*
X146545042Y-62542001D01*
X146545047Y-62542001D01*
X146767316Y-62497789D01*
X147019370Y-62329372D01*
X147061882Y-62265748D01*
X147542631Y-61785000D01*
X147705874Y-61785000D01*
X148086280Y-61627431D01*
X148377431Y-61336280D01*
X148535000Y-60955874D01*
X148535000Y-60544126D01*
X148377431Y-60163720D01*
X148086280Y-59872569D01*
X147705874Y-59715000D01*
X147294126Y-59715000D01*
X146913720Y-59872569D01*
X146622569Y-60163720D01*
X146465000Y-60544126D01*
X146465000Y-60707369D01*
X146154369Y-61018001D01*
X146072380Y-61018001D01*
X146351740Y-60599909D01*
X146463113Y-60040000D01*
X146351740Y-59480091D01*
X146034577Y-59005423D01*
X145913894Y-58924785D01*
X146047765Y-58898157D01*
X146257809Y-58757809D01*
X146398157Y-58547765D01*
X146447440Y-58300000D01*
X146447440Y-56700000D01*
X146398157Y-56452235D01*
X146257809Y-56242191D01*
X146047765Y-56101843D01*
X145800000Y-56052560D01*
X144200000Y-56052560D01*
X143952235Y-56101843D01*
X143742191Y-56242191D01*
X143601843Y-56452235D01*
X143552560Y-56700000D01*
X143552560Y-58300000D01*
X143601843Y-58547765D01*
X143742191Y-58757809D01*
X143952235Y-58898157D01*
X144086106Y-58924785D01*
X143965423Y-59005423D01*
X143648260Y-59480091D01*
X143536887Y-60040000D01*
X143600843Y-60361527D01*
X141959939Y-62002430D01*
X141654577Y-61545423D01*
X141302242Y-61310000D01*
X141654577Y-61074577D01*
X141971740Y-60599909D01*
X142083113Y-60040000D01*
X141971740Y-59480091D01*
X141654577Y-59005423D01*
X141302242Y-58770000D01*
X141654577Y-58534577D01*
X141971740Y-58059909D01*
X142083113Y-57500000D01*
X141971740Y-56940091D01*
X141654577Y-56465423D01*
X141179909Y-56148260D01*
X140761333Y-56065000D01*
X140478667Y-56065000D01*
X140060091Y-56148260D01*
X139585423Y-56465423D01*
X139268260Y-56940091D01*
X139156887Y-57500000D01*
X139268260Y-58059909D01*
X139585423Y-58534577D01*
X139937758Y-58770000D01*
X139585423Y-59005423D01*
X139268260Y-59480091D01*
X139156887Y-60040000D01*
X139268260Y-60599909D01*
X139585423Y-61074577D01*
X139937758Y-61310000D01*
X139585423Y-61545423D01*
X139268260Y-62020091D01*
X139156887Y-62580000D01*
X139267076Y-63133958D01*
X139059684Y-63175211D01*
X138807630Y-63343628D01*
X138765119Y-63407250D01*
X135014253Y-67158117D01*
X134950629Y-67200629D01*
X134782212Y-67452684D01*
X134738000Y-67674953D01*
X134738000Y-67674957D01*
X134723073Y-67750000D01*
X134738000Y-67825043D01*
X134738001Y-78684368D01*
X134255824Y-79166545D01*
X134070625Y-78889375D01*
X133772239Y-78690000D01*
X134070625Y-78490625D01*
X134398839Y-77999418D01*
X134514092Y-77420000D01*
X134398839Y-76840582D01*
X134070625Y-76349375D01*
X133579418Y-76021161D01*
X133146256Y-75935000D01*
X132853744Y-75935000D01*
X132420582Y-76021161D01*
X131929375Y-76349375D01*
X131601161Y-76840582D01*
X131485908Y-77420000D01*
X131127000Y-77420000D01*
X131127000Y-73089039D01*
X131608096Y-73089039D01*
X131768959Y-73477423D01*
X132144866Y-73892389D01*
X132650959Y-74131914D01*
X132873000Y-74010629D01*
X132873000Y-72867000D01*
X133127000Y-72867000D01*
X133127000Y-74010629D01*
X133349041Y-74131914D01*
X133855134Y-73892389D01*
X134231041Y-73477423D01*
X134391904Y-73089039D01*
X134269915Y-72867000D01*
X133127000Y-72867000D01*
X132873000Y-72867000D01*
X131730085Y-72867000D01*
X131608096Y-73089039D01*
X131127000Y-73089039D01*
X131127000Y-60040000D01*
X131536887Y-60040000D01*
X131648260Y-60599909D01*
X131965423Y-61074577D01*
X132317758Y-61310000D01*
X131965423Y-61545423D01*
X131648260Y-62020091D01*
X131536887Y-62580000D01*
X131648260Y-63139909D01*
X131965423Y-63614577D01*
X132317758Y-63850000D01*
X131965423Y-64085423D01*
X131648260Y-64560091D01*
X131536887Y-65120000D01*
X131648260Y-65679909D01*
X131965423Y-66154577D01*
X132317758Y-66390000D01*
X131965423Y-66625423D01*
X131648260Y-67100091D01*
X131536887Y-67660000D01*
X131648260Y-68219909D01*
X131965423Y-68694577D01*
X132317758Y-68930000D01*
X131965423Y-69165423D01*
X131648260Y-69640091D01*
X131536887Y-70200000D01*
X131648260Y-70759909D01*
X131965423Y-71234577D01*
X132349108Y-71490947D01*
X132144866Y-71587611D01*
X131768959Y-72002577D01*
X131608096Y-72390961D01*
X131730085Y-72613000D01*
X132873000Y-72613000D01*
X132873000Y-72593000D01*
X133127000Y-72593000D01*
X133127000Y-72613000D01*
X134269915Y-72613000D01*
X134391904Y-72390961D01*
X134231041Y-72002577D01*
X133855134Y-71587611D01*
X133650892Y-71490947D01*
X134034577Y-71234577D01*
X134351740Y-70759909D01*
X134463113Y-70200000D01*
X134351740Y-69640091D01*
X134034577Y-69165423D01*
X133682242Y-68930000D01*
X134034577Y-68694577D01*
X134351740Y-68219909D01*
X134463113Y-67660000D01*
X134351740Y-67100091D01*
X134034577Y-66625423D01*
X133682242Y-66390000D01*
X134034577Y-66154577D01*
X134351740Y-65679909D01*
X134463113Y-65120000D01*
X134351740Y-64560091D01*
X134034577Y-64085423D01*
X133682242Y-63850000D01*
X134034577Y-63614577D01*
X134351740Y-63139909D01*
X134463113Y-62580000D01*
X134351740Y-62020091D01*
X134034577Y-61545423D01*
X133682242Y-61310000D01*
X134034577Y-61074577D01*
X134351740Y-60599909D01*
X134463113Y-60040000D01*
X134351740Y-59480091D01*
X134034577Y-59005423D01*
X133913894Y-58924785D01*
X134047765Y-58898157D01*
X134257809Y-58757809D01*
X134398157Y-58547765D01*
X134447440Y-58300000D01*
X134447440Y-56700000D01*
X134398157Y-56452235D01*
X134257809Y-56242191D01*
X134047765Y-56101843D01*
X133800000Y-56052560D01*
X132200000Y-56052560D01*
X131952235Y-56101843D01*
X131742191Y-56242191D01*
X131601843Y-56452235D01*
X131552560Y-56700000D01*
X131552560Y-58300000D01*
X131601843Y-58547765D01*
X131742191Y-58757809D01*
X131952235Y-58898157D01*
X132086106Y-58924785D01*
X131965423Y-59005423D01*
X131648260Y-59480091D01*
X131536887Y-60040000D01*
X131127000Y-60040000D01*
X131127000Y-54214561D01*
X139065000Y-54214561D01*
X139065000Y-54785439D01*
X139283466Y-55312862D01*
X139687138Y-55716534D01*
X140214561Y-55935000D01*
X140785439Y-55935000D01*
X141312862Y-55716534D01*
X141716534Y-55312862D01*
X141935000Y-54785439D01*
X141935000Y-54544126D01*
X147965000Y-54544126D01*
X147965000Y-54955874D01*
X148122569Y-55336280D01*
X148413720Y-55627431D01*
X148794126Y-55785000D01*
X149205874Y-55785000D01*
X149586280Y-55627431D01*
X149877431Y-55336280D01*
X150035000Y-54955874D01*
X150035000Y-54792630D01*
X151065631Y-53762000D01*
X151252457Y-53762000D01*
X151065000Y-54214561D01*
X151065000Y-54785439D01*
X151283466Y-55312862D01*
X151687138Y-55716534D01*
X152214561Y-55935000D01*
X152785439Y-55935000D01*
X153312862Y-55716534D01*
X153716534Y-55312862D01*
X153935000Y-54785439D01*
X153935000Y-54214561D01*
X153747543Y-53762000D01*
X155184370Y-53762000D01*
X155965000Y-54542631D01*
X155965000Y-54705874D01*
X156122569Y-55086280D01*
X156413720Y-55377431D01*
X156794126Y-55535000D01*
X157205874Y-55535000D01*
X157586280Y-55377431D01*
X157877431Y-55086280D01*
X158035000Y-54705874D01*
X158035000Y-54464561D01*
X163065000Y-54464561D01*
X163065000Y-55035439D01*
X163283466Y-55562862D01*
X163687138Y-55966534D01*
X164104525Y-56139422D01*
X164060091Y-56148260D01*
X163585423Y-56465423D01*
X163268260Y-56940091D01*
X163156887Y-57500000D01*
X163268260Y-58059909D01*
X163585423Y-58534577D01*
X163937758Y-58770000D01*
X163585423Y-59005423D01*
X163268260Y-59480091D01*
X163156887Y-60040000D01*
X163268260Y-60599909D01*
X163585423Y-61074577D01*
X163937758Y-61310000D01*
X163585423Y-61545423D01*
X163268260Y-62020091D01*
X163156887Y-62580000D01*
X163268260Y-63139909D01*
X163585423Y-63614577D01*
X163937758Y-63850000D01*
X163585423Y-64085423D01*
X163268260Y-64560091D01*
X163156887Y-65120000D01*
X163268260Y-65679909D01*
X163585423Y-66154577D01*
X163937758Y-66390000D01*
X163585423Y-66625423D01*
X163268260Y-67100091D01*
X163156887Y-67660000D01*
X163268260Y-68219909D01*
X163585423Y-68694577D01*
X163937758Y-68930000D01*
X163585423Y-69165423D01*
X163268260Y-69640091D01*
X163156887Y-70200000D01*
X163268260Y-70759909D01*
X163585423Y-71234577D01*
X163937758Y-71470000D01*
X163585423Y-71705423D01*
X163268260Y-72180091D01*
X163156887Y-72740000D01*
X163268260Y-73299909D01*
X163585423Y-73774577D01*
X164060091Y-74091740D01*
X164478667Y-74175000D01*
X164761333Y-74175000D01*
X165179909Y-74091740D01*
X165654577Y-73774577D01*
X165971740Y-73299909D01*
X165981667Y-73250000D01*
X166916887Y-73250000D01*
X167028260Y-73809909D01*
X167345423Y-74284577D01*
X167820091Y-74601740D01*
X168238667Y-74685000D01*
X168521333Y-74685000D01*
X168701527Y-74649157D01*
X170965000Y-76912631D01*
X170965000Y-77075874D01*
X171122569Y-77456280D01*
X171413720Y-77747431D01*
X171794126Y-77905000D01*
X172205874Y-77905000D01*
X172586280Y-77747431D01*
X172877431Y-77456280D01*
X173035000Y-77075874D01*
X173035000Y-76664126D01*
X172877431Y-76283720D01*
X172586280Y-75992569D01*
X172205874Y-75835000D01*
X172042631Y-75835000D01*
X169779157Y-73571527D01*
X169843113Y-73250000D01*
X169786336Y-72964561D01*
X174565000Y-72964561D01*
X174565000Y-73535439D01*
X174783466Y-74062862D01*
X175187138Y-74466534D01*
X175714561Y-74685000D01*
X176285439Y-74685000D01*
X176812862Y-74466534D01*
X177216534Y-74062862D01*
X177435000Y-73535439D01*
X177435000Y-72964561D01*
X177216534Y-72437138D01*
X176812862Y-72033466D01*
X176285439Y-71815000D01*
X175714561Y-71815000D01*
X175187138Y-72033466D01*
X174783466Y-72437138D01*
X174565000Y-72964561D01*
X169786336Y-72964561D01*
X169731740Y-72690091D01*
X169414577Y-72215423D01*
X168939909Y-71898260D01*
X168521333Y-71815000D01*
X168238667Y-71815000D01*
X167820091Y-71898260D01*
X167345423Y-72215423D01*
X167028260Y-72690091D01*
X166916887Y-73250000D01*
X165981667Y-73250000D01*
X166083113Y-72740000D01*
X165971740Y-72180091D01*
X165654577Y-71705423D01*
X165302242Y-71470000D01*
X165654577Y-71234577D01*
X165971740Y-70759909D01*
X166071626Y-70257745D01*
X167671861Y-70257745D01*
X167745995Y-70503864D01*
X168283223Y-70696965D01*
X168853454Y-70669778D01*
X169254005Y-70503864D01*
X169328139Y-70257745D01*
X168500000Y-69429605D01*
X167671861Y-70257745D01*
X166071626Y-70257745D01*
X166083113Y-70200000D01*
X165971740Y-69640091D01*
X165654577Y-69165423D01*
X165456726Y-69033223D01*
X167053035Y-69033223D01*
X167080222Y-69603454D01*
X167246136Y-70004005D01*
X167492255Y-70078139D01*
X168320395Y-69250000D01*
X168679605Y-69250000D01*
X169507745Y-70078139D01*
X169753864Y-70004005D01*
X169946965Y-69466777D01*
X169919778Y-68896546D01*
X169753864Y-68495995D01*
X169507745Y-68421861D01*
X168679605Y-69250000D01*
X168320395Y-69250000D01*
X167492255Y-68421861D01*
X167246136Y-68495995D01*
X167053035Y-69033223D01*
X165456726Y-69033223D01*
X165302242Y-68930000D01*
X165654577Y-68694577D01*
X165956808Y-68242255D01*
X167671861Y-68242255D01*
X168500000Y-69070395D01*
X169328139Y-68242255D01*
X169254005Y-67996136D01*
X168716777Y-67803035D01*
X168146546Y-67830222D01*
X167745995Y-67996136D01*
X167671861Y-68242255D01*
X165956808Y-68242255D01*
X165971740Y-68219909D01*
X166083113Y-67660000D01*
X165971740Y-67100091D01*
X165767301Y-66794126D01*
X169715000Y-66794126D01*
X169715000Y-67205874D01*
X169872569Y-67586280D01*
X169989371Y-67703082D01*
X169989370Y-71048289D01*
X169873939Y-71163720D01*
X169716370Y-71544126D01*
X169716370Y-71955874D01*
X169873939Y-72336280D01*
X170165090Y-72627431D01*
X170545496Y-72785000D01*
X170957244Y-72785000D01*
X171337650Y-72627431D01*
X171628801Y-72336280D01*
X171786370Y-71955874D01*
X171786370Y-71544126D01*
X171628801Y-71163720D01*
X171513370Y-71048289D01*
X171513370Y-68964561D01*
X172065000Y-68964561D01*
X172065000Y-69535439D01*
X172283466Y-70062862D01*
X172687138Y-70466534D01*
X173214561Y-70685000D01*
X173785439Y-70685000D01*
X174312862Y-70466534D01*
X174716534Y-70062862D01*
X174935000Y-69535439D01*
X174935000Y-68964561D01*
X174716534Y-68437138D01*
X174312862Y-68033466D01*
X173785439Y-67815000D01*
X173214561Y-67815000D01*
X172687138Y-68033466D01*
X172283466Y-68437138D01*
X172065000Y-68964561D01*
X171513370Y-68964561D01*
X171513370Y-67700341D01*
X171627431Y-67586280D01*
X171785000Y-67205874D01*
X171785000Y-66794126D01*
X171627431Y-66413720D01*
X171336280Y-66122569D01*
X170955874Y-65965000D01*
X170544126Y-65965000D01*
X170163720Y-66122569D01*
X169872569Y-66413720D01*
X169715000Y-66794126D01*
X165767301Y-66794126D01*
X165654577Y-66625423D01*
X165302242Y-66390000D01*
X165654577Y-66154577D01*
X165971740Y-65679909D01*
X166083113Y-65120000D01*
X165971740Y-64560091D01*
X165654577Y-64085423D01*
X165302242Y-63850000D01*
X165654577Y-63614577D01*
X165971740Y-63139909D01*
X166083113Y-62580000D01*
X165971740Y-62020091D01*
X165654577Y-61545423D01*
X165302242Y-61310000D01*
X165654577Y-61074577D01*
X165971740Y-60599909D01*
X166083113Y-60040000D01*
X167536887Y-60040000D01*
X167648260Y-60599909D01*
X167965423Y-61074577D01*
X168317758Y-61310000D01*
X167965423Y-61545423D01*
X167648260Y-62020091D01*
X167536887Y-62580000D01*
X167648260Y-63139909D01*
X167965423Y-63614577D01*
X168317758Y-63850000D01*
X167965423Y-64085423D01*
X167648260Y-64560091D01*
X167536887Y-65120000D01*
X167648260Y-65679909D01*
X167965423Y-66154577D01*
X168440091Y-66471740D01*
X168858667Y-66555000D01*
X169141333Y-66555000D01*
X169559909Y-66471740D01*
X170034577Y-66154577D01*
X170351740Y-65679909D01*
X170463113Y-65120000D01*
X175156887Y-65120000D01*
X175268260Y-65679909D01*
X175585423Y-66154577D01*
X176060091Y-66471740D01*
X176478667Y-66555000D01*
X176761333Y-66555000D01*
X177179909Y-66471740D01*
X177654577Y-66154577D01*
X177971740Y-65679909D01*
X178083113Y-65120000D01*
X177971740Y-64560091D01*
X177654577Y-64085423D01*
X177270892Y-63829053D01*
X177475134Y-63732389D01*
X177851041Y-63317423D01*
X178011904Y-62929039D01*
X177889915Y-62707000D01*
X176747000Y-62707000D01*
X176747000Y-62727000D01*
X176493000Y-62727000D01*
X176493000Y-62707000D01*
X175350085Y-62707000D01*
X175228096Y-62929039D01*
X175388959Y-63317423D01*
X175764866Y-63732389D01*
X175969108Y-63829053D01*
X175585423Y-64085423D01*
X175268260Y-64560091D01*
X175156887Y-65120000D01*
X170463113Y-65120000D01*
X170351740Y-64560091D01*
X170034577Y-64085423D01*
X169682242Y-63850000D01*
X170034577Y-63614577D01*
X170351740Y-63139909D01*
X170463113Y-62580000D01*
X170351740Y-62020091D01*
X170034577Y-61545423D01*
X169682242Y-61310000D01*
X170034577Y-61074577D01*
X170351740Y-60599909D01*
X170463113Y-60040000D01*
X170351740Y-59480091D01*
X170034577Y-59005423D01*
X169928082Y-58934265D01*
X170159698Y-58838327D01*
X170338327Y-58659699D01*
X170435000Y-58426310D01*
X170435000Y-57785750D01*
X170276250Y-57627000D01*
X169127000Y-57627000D01*
X169127000Y-57647000D01*
X168873000Y-57647000D01*
X168873000Y-57627000D01*
X167723750Y-57627000D01*
X167565000Y-57785750D01*
X167565000Y-58426310D01*
X167661673Y-58659699D01*
X167840302Y-58838327D01*
X168071918Y-58934265D01*
X167965423Y-59005423D01*
X167648260Y-59480091D01*
X167536887Y-60040000D01*
X166083113Y-60040000D01*
X165971740Y-59480091D01*
X165654577Y-59005423D01*
X165302242Y-58770000D01*
X165654577Y-58534577D01*
X165971740Y-58059909D01*
X166083113Y-57500000D01*
X175156887Y-57500000D01*
X175268260Y-58059909D01*
X175585423Y-58534577D01*
X175937758Y-58770000D01*
X175585423Y-59005423D01*
X175268260Y-59480091D01*
X175156887Y-60040000D01*
X175268260Y-60599909D01*
X175585423Y-61074577D01*
X175969108Y-61330947D01*
X175764866Y-61427611D01*
X175388959Y-61842577D01*
X175228096Y-62230961D01*
X175350085Y-62453000D01*
X176493000Y-62453000D01*
X176493000Y-62433000D01*
X176747000Y-62433000D01*
X176747000Y-62453000D01*
X177889915Y-62453000D01*
X178011904Y-62230961D01*
X177851041Y-61842577D01*
X177475134Y-61427611D01*
X177270892Y-61330947D01*
X177654577Y-61074577D01*
X177971740Y-60599909D01*
X178083113Y-60040000D01*
X177971740Y-59480091D01*
X177654577Y-59005423D01*
X177302242Y-58770000D01*
X177654577Y-58534577D01*
X177971740Y-58059909D01*
X178083113Y-57500000D01*
X177971740Y-56940091D01*
X177654577Y-56465423D01*
X177179909Y-56148260D01*
X176761333Y-56065000D01*
X176478667Y-56065000D01*
X176060091Y-56148260D01*
X175585423Y-56465423D01*
X175268260Y-56940091D01*
X175156887Y-57500000D01*
X166083113Y-57500000D01*
X165971740Y-56940091D01*
X165726919Y-56573690D01*
X167565000Y-56573690D01*
X167565000Y-57214250D01*
X167723750Y-57373000D01*
X168873000Y-57373000D01*
X168873000Y-56223750D01*
X169127000Y-56223750D01*
X169127000Y-57373000D01*
X170276250Y-57373000D01*
X170435000Y-57214250D01*
X170435000Y-56573690D01*
X170338327Y-56340301D01*
X170159698Y-56161673D01*
X169926309Y-56065000D01*
X169285750Y-56065000D01*
X169127000Y-56223750D01*
X168873000Y-56223750D01*
X168714250Y-56065000D01*
X168073691Y-56065000D01*
X167840302Y-56161673D01*
X167661673Y-56340301D01*
X167565000Y-56573690D01*
X165726919Y-56573690D01*
X165654577Y-56465423D01*
X165179909Y-56148260D01*
X164973337Y-56107170D01*
X165312862Y-55966534D01*
X165716534Y-55562862D01*
X165935000Y-55035439D01*
X165935000Y-55007745D01*
X169671861Y-55007745D01*
X169745995Y-55253864D01*
X170283223Y-55446965D01*
X170853454Y-55419778D01*
X171254005Y-55253864D01*
X171328139Y-55007745D01*
X170500000Y-54179605D01*
X169671861Y-55007745D01*
X165935000Y-55007745D01*
X165935000Y-54464561D01*
X165716534Y-53937138D01*
X165562619Y-53783223D01*
X169053035Y-53783223D01*
X169080222Y-54353454D01*
X169246136Y-54754005D01*
X169492255Y-54828139D01*
X170320395Y-54000000D01*
X170679605Y-54000000D01*
X171507745Y-54828139D01*
X171753864Y-54754005D01*
X171946965Y-54216777D01*
X171923021Y-53714561D01*
X174065000Y-53714561D01*
X174065000Y-54285439D01*
X174283466Y-54812862D01*
X174687138Y-55216534D01*
X175214561Y-55435000D01*
X175785439Y-55435000D01*
X176312862Y-55216534D01*
X176716534Y-54812862D01*
X176935000Y-54285439D01*
X176935000Y-53714561D01*
X176716534Y-53187138D01*
X176312862Y-52783466D01*
X175785439Y-52565000D01*
X175214561Y-52565000D01*
X174687138Y-52783466D01*
X174283466Y-53187138D01*
X174065000Y-53714561D01*
X171923021Y-53714561D01*
X171919778Y-53646546D01*
X171753864Y-53245995D01*
X171507745Y-53171861D01*
X170679605Y-54000000D01*
X170320395Y-54000000D01*
X169492255Y-53171861D01*
X169246136Y-53245995D01*
X169053035Y-53783223D01*
X165562619Y-53783223D01*
X165312862Y-53533466D01*
X164785439Y-53315000D01*
X164214561Y-53315000D01*
X163687138Y-53533466D01*
X163283466Y-53937138D01*
X163065000Y-54464561D01*
X158035000Y-54464561D01*
X158035000Y-54294126D01*
X157877431Y-53913720D01*
X157586280Y-53622569D01*
X157205874Y-53465000D01*
X157042631Y-53465000D01*
X156589630Y-53012000D01*
X165416891Y-53012000D01*
X165532322Y-53127431D01*
X165912728Y-53285000D01*
X166324476Y-53285000D01*
X166704882Y-53127431D01*
X166840058Y-52992255D01*
X169671861Y-52992255D01*
X170500000Y-53820395D01*
X171328139Y-52992255D01*
X171254005Y-52746136D01*
X170716777Y-52553035D01*
X170146546Y-52580222D01*
X169745995Y-52746136D01*
X169671861Y-52992255D01*
X166840058Y-52992255D01*
X166996033Y-52836280D01*
X167153602Y-52455874D01*
X167153602Y-52044126D01*
X166996033Y-51663720D01*
X166704882Y-51372569D01*
X166324476Y-51215000D01*
X165912728Y-51215000D01*
X165532322Y-51372569D01*
X165416891Y-51488000D01*
X149897711Y-51488000D01*
X149782280Y-51372569D01*
X149401874Y-51215000D01*
X148990126Y-51215000D01*
X148609720Y-51372569D01*
X148318569Y-51663720D01*
X148161000Y-52044126D01*
X148161000Y-52455874D01*
X148318569Y-52836280D01*
X148609720Y-53127431D01*
X148990126Y-53285000D01*
X149387369Y-53285000D01*
X148957370Y-53715000D01*
X148794126Y-53715000D01*
X148413720Y-53872569D01*
X148122569Y-54163720D01*
X147965000Y-54544126D01*
X141935000Y-54544126D01*
X141935000Y-54214561D01*
X141716534Y-53687138D01*
X141312862Y-53283466D01*
X140785439Y-53065000D01*
X140214561Y-53065000D01*
X139687138Y-53283466D01*
X139283466Y-53687138D01*
X139065000Y-54214561D01*
X131127000Y-54214561D01*
X131127000Y-51136296D01*
X131394101Y-51403397D01*
X132436083Y-51835000D01*
X133563917Y-51835000D01*
X134605899Y-51403397D01*
X135403397Y-50605899D01*
X135444053Y-50507745D01*
X139671861Y-50507745D01*
X139745995Y-50753864D01*
X140283223Y-50946965D01*
X140853454Y-50919778D01*
X141254005Y-50753864D01*
X141328139Y-50507745D01*
X151671861Y-50507745D01*
X151745995Y-50753864D01*
X152283223Y-50946965D01*
X152853454Y-50919778D01*
X153244635Y-50757745D01*
X163671861Y-50757745D01*
X163745995Y-51003864D01*
X164283223Y-51196965D01*
X164853454Y-51169778D01*
X165254005Y-51003864D01*
X165328139Y-50757745D01*
X164500000Y-49929605D01*
X163671861Y-50757745D01*
X153244635Y-50757745D01*
X153254005Y-50753864D01*
X153328139Y-50507745D01*
X152500000Y-49679605D01*
X151671861Y-50507745D01*
X141328139Y-50507745D01*
X140500000Y-49679605D01*
X139671861Y-50507745D01*
X135444053Y-50507745D01*
X135835000Y-49563917D01*
X135835000Y-49283223D01*
X139053035Y-49283223D01*
X139080222Y-49853454D01*
X139246136Y-50254005D01*
X139492255Y-50328139D01*
X140320395Y-49500000D01*
X140679605Y-49500000D01*
X141507745Y-50328139D01*
X141753864Y-50254005D01*
X141946965Y-49716777D01*
X141926295Y-49283223D01*
X151053035Y-49283223D01*
X151080222Y-49853454D01*
X151246136Y-50254005D01*
X151492255Y-50328139D01*
X152320395Y-49500000D01*
X152679605Y-49500000D01*
X153507745Y-50328139D01*
X153753864Y-50254005D01*
X153946965Y-49716777D01*
X153938214Y-49533223D01*
X163053035Y-49533223D01*
X163080222Y-50103454D01*
X163246136Y-50504005D01*
X163492255Y-50578139D01*
X164320395Y-49750000D01*
X164679605Y-49750000D01*
X165507745Y-50578139D01*
X165753864Y-50504005D01*
X165946965Y-49966777D01*
X165919778Y-49396546D01*
X165753864Y-48995995D01*
X165507745Y-48921861D01*
X164679605Y-49750000D01*
X164320395Y-49750000D01*
X163492255Y-48921861D01*
X163246136Y-48995995D01*
X163053035Y-49533223D01*
X153938214Y-49533223D01*
X153919778Y-49146546D01*
X153753864Y-48745995D01*
X153741448Y-48742255D01*
X163671861Y-48742255D01*
X164500000Y-49570395D01*
X165328139Y-48742255D01*
X165254005Y-48496136D01*
X164716777Y-48303035D01*
X164146546Y-48330222D01*
X163745995Y-48496136D01*
X163671861Y-48742255D01*
X153741448Y-48742255D01*
X153507745Y-48671861D01*
X152679605Y-49500000D01*
X152320395Y-49500000D01*
X151492255Y-48671861D01*
X151246136Y-48745995D01*
X151053035Y-49283223D01*
X141926295Y-49283223D01*
X141919778Y-49146546D01*
X141753864Y-48745995D01*
X141507745Y-48671861D01*
X140679605Y-49500000D01*
X140320395Y-49500000D01*
X139492255Y-48671861D01*
X139246136Y-48745995D01*
X139053035Y-49283223D01*
X135835000Y-49283223D01*
X135835000Y-48492255D01*
X139671861Y-48492255D01*
X140500000Y-49320395D01*
X141328139Y-48492255D01*
X151671861Y-48492255D01*
X152500000Y-49320395D01*
X153328139Y-48492255D01*
X153254005Y-48246136D01*
X152716777Y-48053035D01*
X152146546Y-48080222D01*
X151745995Y-48246136D01*
X151671861Y-48492255D01*
X141328139Y-48492255D01*
X141254005Y-48246136D01*
X140716777Y-48053035D01*
X140146546Y-48080222D01*
X139745995Y-48246136D01*
X139671861Y-48492255D01*
X135835000Y-48492255D01*
X135835000Y-48436083D01*
X135403397Y-47394101D01*
X135136296Y-47127000D01*
X174863704Y-47127000D01*
X174596603Y-47394101D01*
G04 #@! TD*
M02*
