G04 #@! TF.GenerationSoftware,KiCad,Pcbnew,(5.0.0-3-g5ebb6b6)*
G04 #@! TF.CreationDate,2018-08-15T23:13:33+01:00*
G04 #@! TF.ProjectId,clock,636C6F636B2E6B696361645F70636200,0.1*
G04 #@! TF.SameCoordinates,Original*
G04 #@! TF.FileFunction,Soldermask,Top*
G04 #@! TF.FilePolarity,Negative*
%FSLAX46Y46*%
G04 Gerber Fmt 4.6, Leading zero omitted, Abs format (unit mm)*
G04 Created by KiCad (PCBNEW (5.0.0-3-g5ebb6b6)) date Wednesday 15 August 2018 at 23:13:33*
%MOMM*%
%LPD*%
G01*
G04 APERTURE LIST*
%ADD10C,4.800000*%
%ADD11C,2.000000*%
%ADD12R,2.000000X2.000000*%
%ADD13R,2.200000X2.200000*%
%ADD14C,2.200000*%
%ADD15O,2.100000X2.100000*%
%ADD16R,2.100000X2.100000*%
%ADD17O,2.000000X2.000000*%
%ADD18C,1.924000*%
G04 APERTURE END LIST*
D10*
G04 #@! TO.C,REF\002A\002A*
X177000000Y-93000000D03*
G04 #@! TD*
G04 #@! TO.C,REF\002A\002A*
X133000000Y-93000000D03*
G04 #@! TD*
G04 #@! TO.C,REF\002A\002A*
X177000000Y-49000000D03*
G04 #@! TD*
D11*
G04 #@! TO.C,C1*
X140500000Y-54500000D03*
X140500000Y-49500000D03*
G04 #@! TD*
G04 #@! TO.C,C2*
X152500000Y-49500000D03*
X152500000Y-54500000D03*
G04 #@! TD*
G04 #@! TO.C,C3*
X175500000Y-54000000D03*
X170500000Y-54000000D03*
G04 #@! TD*
G04 #@! TO.C,C4*
X168500000Y-69250000D03*
X173500000Y-69250000D03*
G04 #@! TD*
G04 #@! TO.C,C5*
X162750000Y-85250000D03*
D12*
X165250000Y-85250000D03*
G04 #@! TD*
D11*
G04 #@! TO.C,C6*
X164500000Y-54750000D03*
X164500000Y-49750000D03*
G04 #@! TD*
D13*
G04 #@! TO.C,D1*
X145500000Y-85000000D03*
D14*
X142960000Y-85000000D03*
G04 #@! TD*
G04 #@! TO.C,D2*
X152710000Y-85000000D03*
D13*
X155250000Y-85000000D03*
G04 #@! TD*
D15*
G04 #@! TO.C,J1*
X145290000Y-93000000D03*
D16*
X142750000Y-93000000D03*
G04 #@! TD*
G04 #@! TO.C,J2*
X152500000Y-93000000D03*
D15*
X155040000Y-93000000D03*
G04 #@! TD*
G04 #@! TO.C,J3*
X165290000Y-93000000D03*
D16*
X162750000Y-93000000D03*
G04 #@! TD*
G04 #@! TO.C,J4*
X133000000Y-82500000D03*
D15*
X133000000Y-79960000D03*
X133000000Y-77420000D03*
G04 #@! TD*
G04 #@! TO.C,J5*
X138000000Y-77420000D03*
X138000000Y-79960000D03*
D16*
X138000000Y-82500000D03*
G04 #@! TD*
D11*
G04 #@! TO.C,R1*
X142000000Y-78250000D03*
D17*
X149620000Y-78250000D03*
G04 #@! TD*
G04 #@! TO.C,R2*
X153380000Y-78250000D03*
D11*
X161000000Y-78250000D03*
G04 #@! TD*
D17*
G04 #@! TO.C,R3*
X168380000Y-73250000D03*
D11*
X176000000Y-73250000D03*
G04 #@! TD*
G04 #@! TO.C,R4*
X168250000Y-78000000D03*
D17*
X175870000Y-78000000D03*
G04 #@! TD*
D18*
G04 #@! TO.C,SW1*
X176000000Y-82500000D03*
X174000000Y-82500000D03*
X172000000Y-82500000D03*
X176000000Y-87500000D03*
X174000000Y-87500000D03*
X172000000Y-87500000D03*
G04 #@! TD*
D12*
G04 #@! TO.C,U1*
X133000000Y-57500000D03*
D17*
X140620000Y-72740000D03*
X133000000Y-60040000D03*
X140620000Y-70200000D03*
X133000000Y-62580000D03*
X140620000Y-67660000D03*
X133000000Y-65120000D03*
X140620000Y-65120000D03*
X133000000Y-67660000D03*
X140620000Y-62580000D03*
X133000000Y-70200000D03*
X140620000Y-60040000D03*
X133000000Y-72740000D03*
X140620000Y-57500000D03*
G04 #@! TD*
G04 #@! TO.C,U2*
X152620000Y-57500000D03*
X145000000Y-72740000D03*
X152620000Y-60040000D03*
X145000000Y-70200000D03*
X152620000Y-62580000D03*
X145000000Y-67660000D03*
X152620000Y-65120000D03*
X145000000Y-65120000D03*
X152620000Y-67660000D03*
X145000000Y-62580000D03*
X152620000Y-70200000D03*
X145000000Y-60040000D03*
X152620000Y-72740000D03*
D12*
X145000000Y-57500000D03*
G04 #@! TD*
D17*
G04 #@! TO.C,U3*
X164620000Y-57500000D03*
X157000000Y-72740000D03*
X164620000Y-60040000D03*
X157000000Y-70200000D03*
X164620000Y-62580000D03*
X157000000Y-67660000D03*
X164620000Y-65120000D03*
X157000000Y-65120000D03*
X164620000Y-67660000D03*
X157000000Y-62580000D03*
X164620000Y-70200000D03*
X157000000Y-60040000D03*
X164620000Y-72740000D03*
D12*
X157000000Y-57500000D03*
G04 #@! TD*
D17*
G04 #@! TO.C,U4*
X176620000Y-57500000D03*
X169000000Y-65120000D03*
X176620000Y-60040000D03*
X169000000Y-62580000D03*
X176620000Y-62580000D03*
X169000000Y-60040000D03*
X176620000Y-65120000D03*
D12*
X169000000Y-57500000D03*
G04 #@! TD*
D10*
G04 #@! TO.C,REF\002A\002A*
X133000000Y-49000000D03*
G04 #@! TD*
M02*
